<svg width="573" height="385" viewBox="0 0 573 385" fill="none" xmlns="http://www.w3.org/2000/svg">
<g filter="url(#filter0_d_1_141)">
<rect x="16" y="16" width="146" height="45" rx="22.5" fill="white" shape-rendering="crispEdges"/>
<path d="M52 42.4237C52 42.6949 51.8984 42.9407 51.6953 43.161C51.4922 43.3814 51.2656 43.4915 51.0156 43.4915C50.7344 43.4915 50.4922 43.3814 50.2891 43.161C50.0859 42.9407 49.9844 42.6949 49.9844 42.4237C49.9844 42.1186 50.0859 41.8559 50.2891 41.6356C50.4922 41.4153 50.7344 41.3051 51.0156 41.3051C51.2656 41.3051 51.4922 41.4153 51.6953 41.6356C51.8984 41.8559 52 42.1186 52 42.4237ZM67.9844 27.2203H55V27.322C53.6875 27.6949 52.6875 28.3898 52 29.4068C51.75 29.4068 51.5391 29.2288 51.3672 28.8729C51.1953 28.5169 51.0938 28.1525 51.0625 27.7797L51.0156 27.2203H49C49 28.0339 49.1719 28.8644 49.5156 29.7119C49.8594 30.5593 50.3906 31.1356 51.1094 31.4407C51.1094 31.5085 51.0938 31.6102 51.0625 31.7458C51.0312 31.8814 51.0156 31.9661 51.0156 32C49.5781 32.7119 48.5781 33.8983 48.0156 35.5593C47.6094 36.7797 47.2344 38.1271 46.8906 39.6017C46.5469 41.0763 46.3125 42.2203 46.1875 43.0339C46.0625 43.8475 46 44.322 46 44.4576C46 45.4746 46.2031 46.2373 46.6094 46.7458C47.0781 47.4576 47.875 47.8136 49 47.8136H52C52.9062 47.8136 53.6328 47.5169 54.1797 46.9237C54.7266 46.3305 55 45.5424 55 44.5593C55 43.7458 55.0625 42.661 55.1875 41.3051H57.0156C57.9219 41.3051 58.7344 41 59.4531 40.3898C60.1719 39.7797 60.6562 39 60.9062 38.0508H61.9844C63.5781 38.0508 64.7188 37.339 65.4062 35.9153H67.5156C67.8281 35.9153 67.9844 35.7288 67.9844 35.3559C67.9844 34.983 67.8281 34.7966 67.5156 34.7966H65.9219C65.9219 34.6949 65.9375 34.5169 65.9688 34.2627C66 34.0085 66.0156 33.8305 66.0156 33.7288H70V26.1525H69.0156C68.3281 26.1525 67.9844 26.5085 67.9844 27.2203ZM55 29.6102V35.661C54.4062 35.4576 53.9219 35.0763 53.5469 34.5169C53.1719 33.9576 52.9844 33.339 52.9844 32.661C52.9844 31.9492 53.1719 31.3136 53.5469 30.7542C53.9219 30.1949 54.4062 29.8136 55 29.6102ZM52 45.678H49C48.5312 45.678 48.2344 45.5932 48.1094 45.4237C48.0469 45.2881 48.0156 45.0339 48.0156 44.661C48.3906 41.6441 49.0156 38.8305 49.8906 36.2203C50.2031 35.3729 50.6406 34.7288 51.2031 34.2881C51.5781 35.678 52.4062 36.7288 53.6875 37.4407C53.2188 40.6271 52.9844 43 52.9844 44.5593C52.9844 45.3051 52.6562 45.678 52 45.678ZM57.0156 39.1695H55.5156C55.6406 38.5593 55.7031 38.1864 55.7031 38.0508H58.7031C58.3906 38.7966 57.8281 39.1695 57.0156 39.1695ZM61.9844 35.9153H57.0156V29.4068H64V30.4746H59.5C59.1562 30.4746 58.9844 30.661 58.9844 31.0339C58.9844 31.3729 59.1562 31.5424 59.5 31.5424H64V32.661H59.5C59.1562 32.661 58.9844 32.8305 58.9844 33.1695C58.9844 33.5424 59.1562 33.7288 59.5 33.7288H64C64 34.3051 63.8047 34.8136 63.4141 35.2542C63.0234 35.6949 62.5469 35.9153 61.9844 35.9153ZM67.9844 31.5424H66.0156V29.4068H67.9844V31.5424Z" fill="#1C1C1C"/>
<path d="M80.5737 45H81.7077C81.9237 45 82.0677 44.856 82.1217 44.73L83.2197 42.264H89.1057L90.2217 44.73C90.2937 44.892 90.4197 45 90.6357 45H91.7697C92.0397 45 92.1837 44.766 92.0757 44.532L86.5857 32.418C86.5317 32.31 86.3697 32.22 86.2797 32.22H86.0997C86.0097 32.22 85.8477 32.31 85.7937 32.418L80.2677 44.532C80.1597 44.766 80.3037 45 80.5737 45ZM83.9217 40.716L86.1177 35.784H86.2077L88.4217 40.716H83.9217ZM92.7282 40.86C92.7282 43.362 94.6542 45.198 96.9762 45.198C98.4162 45.198 99.5322 44.496 100.216 43.47C100.36 43.254 100.27 43.056 100.072 42.876L99.5142 42.426C99.3342 42.282 99.1362 42.282 98.9562 42.462C98.5062 42.876 98.0742 43.488 96.9942 43.488C95.6082 43.488 94.5282 42.336 94.5282 40.842C94.5282 39.366 95.6262 38.214 97.0482 38.214C97.7142 38.214 98.3802 38.628 98.7582 39.042C98.9022 39.186 99.0642 39.348 99.2982 39.132L99.9462 38.538C100.126 38.376 100.18 38.142 100.018 37.944C99.2442 36.99 98.2902 36.504 96.9942 36.504C94.6902 36.504 92.7282 38.412 92.7282 40.86ZM102.668 42.714C102.668 44.19 103.118 45.198 104.774 45.198C105.764 45.198 106.736 44.82 107.078 44.604C107.276 44.478 107.366 44.334 107.276 44.118L106.952 43.272C106.88 43.092 106.718 42.948 106.466 43.092C106.16 43.272 105.656 43.488 105.134 43.488C104.738 43.488 104.468 43.344 104.468 42.642V38.214H106.664C106.88 38.214 107.06 38.016 107.06 37.818V37.08C107.06 36.846 106.88 36.684 106.664 36.684H104.468V34.362C104.468 34.146 104.306 33.966 104.09 33.966H103.064C102.848 33.966 102.668 34.146 102.668 34.362V36.684H101.714C101.48 36.684 101.318 36.846 101.318 37.08V37.818C101.318 38.016 101.48 38.214 101.714 38.214H102.668V42.714ZM108.948 44.604C108.948 44.82 109.128 45 109.344 45H110.352C110.55 45 110.748 44.82 110.748 44.604V37.08C110.748 36.882 110.55 36.684 110.352 36.684H109.344C109.128 36.684 108.948 36.882 108.948 37.08V44.604ZM109.848 34.902C110.532 34.902 111.072 34.362 111.072 33.696C111.072 33.012 110.532 32.472 109.848 32.472C109.182 32.472 108.66 33.012 108.66 33.696C108.66 34.362 109.182 34.902 109.848 34.902ZM112.75 40.824C112.75 43.2 114.658 45.198 116.998 45.198C119.32 45.198 121.228 43.2 121.228 40.824C121.228 38.484 119.32 36.504 116.998 36.504C114.658 36.504 112.75 38.484 112.75 40.824ZM114.514 40.824C114.514 39.33 115.594 38.214 116.998 38.214C118.384 38.214 119.464 39.33 119.464 40.824C119.464 42.354 118.384 43.488 116.998 43.488C115.594 43.488 114.514 42.354 114.514 40.824ZM123.221 44.604C123.221 44.82 123.401 45 123.617 45H124.535C124.877 45 125.021 44.874 125.021 44.604V39.42C125.147 39.132 125.903 38.214 127.217 38.214C128.297 38.214 128.855 39.006 128.855 40.356V44.604C128.855 44.82 129.035 45 129.251 45H130.259C130.457 45 130.655 44.82 130.655 44.604V40.428C130.655 38.268 129.971 36.504 127.433 36.504C125.777 36.504 124.823 37.44 124.643 37.656L124.391 36.936C124.355 36.774 124.229 36.684 124.049 36.684H123.617C123.401 36.684 123.221 36.882 123.221 37.08V44.604Z" fill="#1C1C1C"/>
</g>
<g filter="url(#filter1_d_1_141)">
<rect x="182" y="16" width="156" height="45" rx="22.5" fill="white" shape-rendering="crispEdges"/>
<path d="M214 28.25C208.624 28.25 204.25 32.624 204.25 38C204.25 43.376 208.624 47.75 214 47.75C219.376 47.75 223.75 43.376 223.75 38C223.75 32.624 219.376 28.25 214 28.25ZM213.156 29.7973C213.186 29.7935 213.219 29.7995 213.25 29.7973V30.5H214.75V29.7965C216.669 29.9682 218.467 30.8086 219.829 32.171C221.191 33.5333 222.032 35.331 222.203 37.25H221.5V38.75H222.203C222.032 40.669 221.191 42.4667 219.829 43.829C218.467 45.1914 216.669 46.0318 214.75 46.2035V45.5H213.25V46.2035C211.331 46.0318 209.533 45.1914 208.171 43.829C206.809 42.4667 205.968 40.669 205.796 38.75H206.5V37.25H205.796C206.15 33.3177 209.237 30.1925 213.156 29.7965V29.7973ZM218.571 33.4295L212.196 36.1955L209.429 42.5705L215.804 39.8045L218.571 33.4295ZM214 36.875C214.6 36.875 215.125 37.4 215.125 38C215.125 38.6 214.6 39.125 214 39.125C213.4 39.125 212.875 38.6 212.875 38C212.875 37.4 213.4 36.875 214 36.875Z" fill="#1C1C1C"/>
<path d="M236.5 45H237.634C237.85 45 237.994 44.856 238.048 44.73L239.146 42.264H245.032L246.148 44.73C246.22 44.892 246.346 45 246.562 45H247.696C247.966 45 248.11 44.766 248.002 44.532L242.512 32.418C242.458 32.31 242.296 32.22 242.206 32.22H242.026C241.936 32.22 241.774 32.31 241.72 32.418L236.194 44.532C236.086 44.766 236.23 45 236.5 45ZM239.848 40.716L242.044 35.784H242.134L244.348 40.716H239.848ZM248.673 40.842C248.673 43.218 250.275 45.198 252.471 45.198C254.127 45.198 255.207 44.028 255.207 44.028L255.387 44.64C255.441 44.856 255.567 45 255.765 45H256.197C256.413 45 256.593 44.82 256.593 44.604V32.796C256.593 32.598 256.413 32.4 256.197 32.4H255.171C254.973 32.4 254.775 32.598 254.775 32.796V36.936C254.595 36.882 253.749 36.504 252.687 36.504C250.383 36.504 248.673 38.412 248.673 40.842ZM250.473 40.842C250.473 39.42 251.517 38.214 252.885 38.214C253.965 38.214 254.793 38.7 254.793 38.7V42.264C254.703 42.498 254.001 43.488 252.723 43.488C251.391 43.488 250.473 42.246 250.473 40.842ZM261.809 44.982C261.863 45.09 261.989 45.198 262.169 45.198H262.277C262.457 45.198 262.565 45.09 262.619 44.982L266.219 37.152C266.363 36.9 266.219 36.684 265.913 36.684H265.103C264.869 36.684 264.653 36.684 264.545 36.918L262.223 42.012H262.187L259.973 36.918C259.901 36.774 259.811 36.684 259.613 36.684H258.515C258.209 36.684 258.065 36.9 258.209 37.152L261.809 44.982ZM267.112 40.842C267.112 43.218 268.75 45.198 271.27 45.198C272.656 45.198 273.754 44.694 274.348 44.172C274.6 43.956 274.528 43.794 274.384 43.614L273.898 42.858C273.754 42.642 273.592 42.696 273.412 42.822C272.908 43.182 272.332 43.524 271.378 43.524C269.92 43.524 268.912 42.372 268.894 41.256H274.636C274.816 41.256 274.996 41.112 275.014 40.896C275.032 40.752 275.05 40.464 275.05 40.32C275.05 38.106 273.412 36.504 271.252 36.504C268.75 36.504 267.112 38.502 267.112 40.842ZM268.984 39.924C269.11 38.88 269.902 38.034 271.216 38.034C272.44 38.034 273.232 38.916 273.268 39.924H268.984ZM276.933 44.604C276.933 44.82 277.113 45 277.329 45H278.247C278.589 45 278.733 44.874 278.733 44.604V39.42C278.859 39.132 279.615 38.214 280.929 38.214C282.009 38.214 282.567 39.006 282.567 40.356V44.604C282.567 44.82 282.747 45 282.963 45H283.971C284.169 45 284.367 44.82 284.367 44.604V40.428C284.367 38.268 283.683 36.504 281.145 36.504C279.489 36.504 278.535 37.44 278.355 37.656L278.103 36.936C278.067 36.774 277.941 36.684 277.761 36.684H277.329C277.113 36.684 276.933 36.882 276.933 37.08V44.604ZM287.247 42.714C287.247 44.19 287.697 45.198 289.353 45.198C290.343 45.198 291.315 44.82 291.657 44.604C291.855 44.478 291.945 44.334 291.855 44.118L291.531 43.272C291.459 43.092 291.297 42.948 291.045 43.092C290.739 43.272 290.235 43.488 289.713 43.488C289.317 43.488 289.047 43.344 289.047 42.642V38.214H291.243C291.459 38.214 291.639 38.016 291.639 37.818V37.08C291.639 36.846 291.459 36.684 291.243 36.684H289.047V34.362C289.047 34.146 288.885 33.966 288.669 33.966H287.643C287.427 33.966 287.247 34.146 287.247 34.362V36.684H286.293C286.059 36.684 285.897 36.846 285.897 37.08V37.818C285.897 38.016 286.059 38.214 286.293 38.214H287.247V42.714ZM293.437 41.382C293.437 43.56 294.049 45.198 296.533 45.198C298.225 45.198 298.981 44.244 299.161 44.064L299.377 44.658C299.449 44.856 299.539 45 299.755 45H300.187C300.403 45 300.601 44.82 300.601 44.604V37.08C300.601 36.882 300.403 36.684 300.187 36.684H299.269C298.963 36.684 298.801 36.738 298.801 37.08V42.12C298.729 42.498 298.063 43.488 296.857 43.488C295.795 43.488 295.237 42.876 295.237 41.508V37.08C295.237 36.882 295.057 36.684 294.841 36.684H293.833C293.635 36.684 293.437 36.882 293.437 37.08V41.382ZM303.124 44.604C303.124 44.82 303.304 45 303.52 45H304.348C304.69 45 304.924 44.964 304.924 44.604V39.33C304.996 39.186 305.662 38.214 306.886 38.214C307.138 38.214 307.516 38.304 307.642 38.376C307.822 38.466 308.038 38.412 308.146 38.178L308.578 37.278C308.848 36.72 307.858 36.504 307.066 36.504C305.554 36.504 304.69 37.512 304.546 37.728L304.312 36.972C304.276 36.81 304.114 36.684 303.952 36.684H303.52C303.304 36.684 303.124 36.882 303.124 37.08V44.604ZM309.335 40.842C309.335 43.218 310.973 45.198 313.493 45.198C314.879 45.198 315.977 44.694 316.571 44.172C316.823 43.956 316.751 43.794 316.607 43.614L316.121 42.858C315.977 42.642 315.815 42.696 315.635 42.822C315.131 43.182 314.555 43.524 313.601 43.524C312.143 43.524 311.135 42.372 311.117 41.256H316.859C317.039 41.256 317.219 41.112 317.237 40.896C317.255 40.752 317.273 40.464 317.273 40.32C317.273 38.106 315.635 36.504 313.475 36.504C310.973 36.504 309.335 38.502 309.335 40.842ZM311.207 39.924C311.333 38.88 312.125 38.034 313.439 38.034C314.663 38.034 315.455 38.916 315.491 39.924H311.207Z" fill="#1C1C1C"/>
</g>
<g filter="url(#filter2_d_1_141)">
<rect x="358" y="16" width="191" height="45" rx="22.5" fill="white" shape-rendering="crispEdges"/>
<path d="M390 39.875C392.692 39.875 394.875 37.6924 394.875 35C394.875 32.3076 392.692 30.125 390 30.125C387.308 30.125 385.125 32.3076 385.125 35C385.125 37.6924 387.308 39.875 390 39.875Z" stroke="#1C1C1C" stroke-width="1.5" stroke-linecap="round" stroke-linejoin="round"/>
<path d="M382.125 47.375C382.125 43.625 385.125 39.875 390 39.875C394.875 39.875 397.875 43.625 397.875 47.375" stroke="#1C1C1C" stroke-width="1.5" stroke-linecap="round" stroke-linejoin="round"/>
<path d="M412.677 45H413.811C414.027 45 414.171 44.856 414.225 44.73L415.323 42.264H421.209L422.325 44.73C422.397 44.892 422.523 45 422.739 45H423.873C424.143 45 424.287 44.766 424.179 44.532L418.689 32.418C418.635 32.31 418.473 32.22 418.383 32.22H418.203C418.113 32.22 417.951 32.31 417.897 32.418L412.371 44.532C412.263 44.766 412.407 45 412.677 45ZM416.025 40.716L418.221 35.784H418.311L420.525 40.716H416.025ZM425.246 41.382C425.246 43.56 425.858 45.198 428.342 45.198C430.034 45.198 430.79 44.244 430.97 44.064L431.186 44.658C431.258 44.856 431.348 45 431.564 45H431.996C432.212 45 432.41 44.82 432.41 44.604V37.08C432.41 36.882 432.212 36.684 431.996 36.684H431.078C430.772 36.684 430.61 36.738 430.61 37.08V42.12C430.538 42.498 429.872 43.488 428.666 43.488C427.604 43.488 427.046 42.876 427.046 41.508V37.08C427.046 36.882 426.866 36.684 426.65 36.684H425.642C425.444 36.684 425.246 36.882 425.246 37.08V41.382ZM435.492 42.714C435.492 44.19 435.942 45.198 437.598 45.198C438.588 45.198 439.56 44.82 439.902 44.604C440.1 44.478 440.19 44.334 440.1 44.118L439.776 43.272C439.704 43.092 439.542 42.948 439.29 43.092C438.984 43.272 438.48 43.488 437.958 43.488C437.562 43.488 437.292 43.344 437.292 42.642V38.214H439.488C439.704 38.214 439.884 38.016 439.884 37.818V37.08C439.884 36.846 439.704 36.684 439.488 36.684H437.292V34.362C437.292 34.146 437.13 33.966 436.914 33.966H435.888C435.672 33.966 435.492 34.146 435.492 34.362V36.684H434.538C434.304 36.684 434.142 36.846 434.142 37.08V37.818C434.142 38.016 434.304 38.214 434.538 38.214H435.492V42.714ZM441.25 40.824C441.25 43.2 443.158 45.198 445.498 45.198C447.82 45.198 449.728 43.2 449.728 40.824C449.728 38.484 447.82 36.504 445.498 36.504C443.158 36.504 441.25 38.484 441.25 40.824ZM443.014 40.824C443.014 39.33 444.094 38.214 445.498 38.214C446.884 38.214 447.964 39.33 447.964 40.824C447.964 42.354 446.884 43.488 445.498 43.488C444.094 43.488 443.014 42.354 443.014 40.824ZM451.721 44.604C451.721 44.82 451.901 45 452.117 45H452.549C452.747 45 452.873 44.856 452.927 44.64L453.107 44.028C453.107 44.028 454.187 45.198 455.843 45.198C458.021 45.198 459.713 43.218 459.713 40.842C459.713 38.412 457.931 36.504 455.627 36.504C454.565 36.504 453.719 36.882 453.539 36.936V32.796C453.539 32.598 453.341 32.4 453.143 32.4H452.117C451.901 32.4 451.721 32.598 451.721 32.796V44.604ZM453.521 42.282V38.664C453.521 38.664 454.349 38.214 455.429 38.214C456.797 38.214 457.913 39.42 457.913 40.842C457.913 42.246 456.923 43.488 455.573 43.488C454.313 43.488 453.629 42.516 453.521 42.282ZM461.723 44.604C461.723 44.82 461.903 45 462.119 45H463.127C463.325 45 463.523 44.82 463.523 44.604V37.08C463.523 36.882 463.325 36.684 463.127 36.684H462.119C461.903 36.684 461.723 36.882 461.723 37.08V44.604ZM462.623 34.902C463.307 34.902 463.847 34.362 463.847 33.696C463.847 33.012 463.307 32.472 462.623 32.472C461.957 32.472 461.435 33.012 461.435 33.696C461.435 34.362 461.957 34.902 462.623 34.902ZM465.525 40.824C465.525 43.2 467.433 45.198 469.773 45.198C472.095 45.198 474.003 43.2 474.003 40.824C474.003 38.484 472.095 36.504 469.773 36.504C467.433 36.504 465.525 38.484 465.525 40.824ZM467.289 40.824C467.289 39.33 468.369 38.214 469.773 38.214C471.159 38.214 472.239 39.33 472.239 40.824C472.239 42.354 471.159 43.488 469.773 43.488C468.369 43.488 467.289 42.354 467.289 40.824ZM477.292 40.842C477.292 39.438 478.228 38.214 479.65 38.214C480.766 38.214 481.486 39.078 481.648 39.384V42.822C481.648 42.822 480.82 43.488 479.722 43.488C478.372 43.488 477.292 42.264 477.292 40.842ZM483.448 37.08C483.448 36.882 483.268 36.684 483.052 36.684H482.566C482.368 36.684 482.314 36.81 482.26 36.972L482.044 37.494C481.9 37.35 480.964 36.504 479.416 36.504C477.13 36.504 475.492 38.466 475.492 40.842C475.492 43.272 477.238 45.198 479.506 45.198C480.586 45.198 481.486 44.694 481.63 44.604V45.054C481.63 46.746 480.658 47.286 479.56 47.286C478.606 47.286 477.904 46.746 477.616 46.512C477.4 46.35 477.166 46.422 477.058 46.638L476.626 47.43C476.554 47.556 476.572 47.808 476.716 47.898C477.076 48.258 478.21 48.942 479.596 48.942C481.774 48.942 483.448 47.646 483.448 45.054V37.08ZM485.963 44.604C485.963 44.82 486.143 45 486.359 45H487.187C487.529 45 487.763 44.964 487.763 44.604V39.33C487.835 39.186 488.501 38.214 489.725 38.214C489.977 38.214 490.355 38.304 490.481 38.376C490.661 38.466 490.877 38.412 490.985 38.178L491.417 37.278C491.687 36.72 490.697 36.504 489.905 36.504C488.393 36.504 487.529 37.512 487.385 37.728L487.151 36.972C487.115 36.81 486.953 36.684 486.791 36.684H486.359C486.143 36.684 485.963 36.882 485.963 37.08V44.604ZM492.206 42.426C492.206 44.154 493.322 45.198 494.888 45.198C496.166 45.198 496.994 44.586 497.444 44.154L497.642 44.712C497.732 44.928 497.822 45 497.984 45H498.578C498.776 45 498.974 44.82 498.974 44.604V40.176C498.974 38.106 498.722 36.504 496.058 36.504C494.528 36.504 493.34 36.918 493.196 36.972C492.998 37.044 492.872 37.17 492.926 37.458L493.088 38.142C493.142 38.376 493.304 38.538 493.556 38.484C493.988 38.358 494.924 38.088 495.878 38.088C496.922 38.088 497.246 38.682 497.21 39.996C497.21 39.996 496.4 39.744 495.536 39.744C493.394 39.744 492.206 40.896 492.206 42.426ZM493.97 42.408C493.97 41.544 494.708 41.04 495.68 41.04C496.436 41.04 497.084 41.256 497.192 41.328V42.714C496.94 43.128 496.094 43.722 495.266 43.722C494.402 43.722 493.97 43.146 493.97 42.408ZM503.25 44.622C503.394 44.712 504.294 45.198 505.374 45.198C507.642 45.198 509.37 43.272 509.37 40.842C509.37 38.466 507.732 36.504 505.446 36.504C503.916 36.504 502.98 37.35 502.836 37.494L502.62 36.954C502.548 36.756 502.44 36.684 502.26 36.684H501.81C501.594 36.684 501.414 36.882 501.414 37.08V48.888C501.414 49.104 501.594 49.284 501.81 49.284H502.818C503.088 49.284 503.25 49.122 503.25 48.888V44.622ZM503.214 42.876V39.384C503.286 39.132 504.006 38.214 505.212 38.214C506.634 38.214 507.57 39.366 507.57 40.842C507.57 42.336 506.49 43.488 505.14 43.488C504.024 43.488 503.214 42.876 503.214 42.876ZM511.381 44.604C511.381 44.82 511.561 45 511.777 45H512.767C513.019 45 513.181 44.838 513.181 44.604V39.42C513.361 39.06 514.081 38.214 515.359 38.214C516.439 38.214 517.015 39.024 517.015 40.392V44.604C517.015 44.82 517.195 45 517.411 45H518.419C518.617 45 518.815 44.82 518.815 44.604V40.428C518.815 38.16 517.951 36.504 515.593 36.504C514.279 36.504 513.379 37.224 513.181 37.368V32.796C513.181 32.598 512.983 32.4 512.785 32.4H511.777C511.561 32.4 511.381 32.598 511.381 32.796V44.604ZM523.047 44.712L521.373 48.726C521.229 49.014 521.427 49.284 521.733 49.284H522.885C523.047 49.284 523.155 49.158 523.227 49.032L528.303 37.224C528.429 36.936 528.285 36.684 527.943 36.684H526.827C526.629 36.684 526.467 36.72 526.395 36.918L524.055 42.624H524.019L522.093 36.918C522.039 36.774 521.859 36.684 521.733 36.684H520.545C520.221 36.684 520.077 36.936 520.185 37.224L523.047 44.712Z" fill="#1C1C1C"/>
</g>
<g filter="url(#filter3_d_1_141)">
<rect x="16" y="91" width="160" height="45" rx="22.5" fill="white" shape-rendering="crispEdges"/>
<path d="M58 103.25C52.624 103.25 48.25 107.624 48.25 113C48.25 118.376 52.624 122.75 58 122.75C63.376 122.75 67.75 118.376 67.75 113C67.75 107.624 63.376 103.25 58 103.25ZM58 104.75C62.5487 104.75 66.25 108.451 66.25 113C66.25 117.549 62.5487 121.25 58 121.25C53.4513 121.25 49.75 117.549 49.75 113C49.75 108.451 53.4513 104.75 58 104.75ZM53.5413 109.376L52.7087 110.624L54.0227 111.5L52.7087 112.376L53.5413 113.624L56.7273 111.5L53.5413 109.376ZM62.4587 109.376L59.2728 111.5L62.4587 113.624L63.2913 112.376L61.9772 111.5L63.2913 110.624L62.4587 109.376ZM52.75 115.25C52.75 115.25 53.9538 119 58 119C62.0463 119 63.25 115.25 63.25 115.25H52.75Z" fill="#1C1C1C"/>
<path d="M81.0984 113.718C81.0984 117.318 83.9964 120.18 87.5964 120.18C89.1984 120.18 90.7464 119.622 91.9704 118.434C92.0964 118.308 92.1324 118.074 91.9884 117.948L91.1604 117.138C91.0524 117.048 90.8904 117.03 90.7284 117.156C89.8644 117.822 88.9464 118.344 87.6324 118.344C85.0584 118.344 83.0964 116.202 83.0964 113.682C83.0964 111.162 85.0404 109.002 87.6144 109.002C88.7304 109.002 89.8824 109.47 90.7284 110.208C90.8904 110.37 91.0524 110.37 91.1784 110.208L91.9704 109.398C92.1144 109.254 92.1144 109.038 91.9524 108.894C90.7284 107.832 89.4144 107.22 87.5964 107.22C83.9964 107.22 81.0984 110.118 81.0984 113.718ZM93.365 115.824C93.365 118.2 95.273 120.198 97.613 120.198C99.935 120.198 101.843 118.2 101.843 115.824C101.843 113.484 99.935 111.504 97.613 111.504C95.273 111.504 93.365 113.484 93.365 115.824ZM95.129 115.824C95.129 114.33 96.209 113.214 97.613 113.214C98.999 113.214 100.079 114.33 100.079 115.824C100.079 117.354 98.999 118.488 97.613 118.488C96.209 118.488 95.129 117.354 95.129 115.824ZM103.836 119.604C103.836 119.82 104.016 120 104.232 120H105.24C105.438 120 105.636 119.82 105.636 119.604V114.42C105.726 114.132 106.356 113.214 107.598 113.214C108.75 113.214 109.236 114.006 109.236 115.356V119.604C109.236 119.82 109.398 120 109.632 120H110.658C110.856 120 111.036 119.82 111.036 119.604V115.302C111.036 114.87 111 114.366 110.964 114.186C111.108 114.06 111.702 113.214 112.962 113.214C114.096 113.214 114.6 114.024 114.6 115.356V119.604C114.6 119.82 114.744 120 114.996 120H116.004C116.238 120 116.4 119.82 116.4 119.604V115.428C116.4 113.268 115.77 111.504 113.232 111.504C111.648 111.504 110.658 112.584 110.424 112.818C109.812 111.972 109.092 111.504 107.886 111.504C106.302 111.504 105.42 112.458 105.24 112.656L105.006 111.936C104.952 111.774 104.844 111.684 104.646 111.684H104.232C104.016 111.684 103.836 111.882 103.836 112.08V119.604ZM118.326 115.842C118.326 118.218 119.964 120.198 122.484 120.198C123.87 120.198 124.968 119.694 125.562 119.172C125.814 118.956 125.742 118.794 125.598 118.614L125.112 117.858C124.968 117.642 124.806 117.696 124.626 117.822C124.122 118.182 123.546 118.524 122.592 118.524C121.134 118.524 120.126 117.372 120.108 116.256H125.85C126.03 116.256 126.21 116.112 126.228 115.896C126.246 115.752 126.264 115.464 126.264 115.32C126.264 113.106 124.626 111.504 122.466 111.504C119.964 111.504 118.326 113.502 118.326 115.842ZM120.198 114.924C120.324 113.88 121.116 113.034 122.43 113.034C123.654 113.034 124.446 113.916 124.482 114.924H120.198ZM127.643 115.842C127.643 118.218 129.245 120.198 131.441 120.198C133.097 120.198 134.177 119.028 134.177 119.028L134.357 119.64C134.411 119.856 134.537 120 134.735 120H135.167C135.383 120 135.563 119.82 135.563 119.604V107.796C135.563 107.598 135.383 107.4 135.167 107.4H134.141C133.943 107.4 133.745 107.598 133.745 107.796V111.936C133.565 111.882 132.719 111.504 131.657 111.504C129.353 111.504 127.643 113.412 127.643 115.842ZM129.443 115.842C129.443 114.42 130.487 113.214 131.855 113.214C132.935 113.214 133.763 113.7 133.763 113.7V117.264C133.673 117.498 132.971 118.488 131.693 118.488C130.361 118.488 129.443 117.246 129.443 115.842ZM140.094 119.712L138.42 123.726C138.276 124.014 138.474 124.284 138.78 124.284H139.932C140.094 124.284 140.202 124.158 140.274 124.032L145.35 112.224C145.476 111.936 145.332 111.684 144.99 111.684H143.874C143.676 111.684 143.514 111.72 143.442 111.918L141.102 117.624H141.066L139.14 111.918C139.086 111.774 138.906 111.684 138.78 111.684H137.592C137.268 111.684 137.124 111.936 137.232 112.224L140.094 119.712Z" fill="#1C1C1C"/>
</g>
<g filter="url(#filter4_d_1_141)">
<rect x="196" y="91" width="142" height="45" rx="22.5" fill="white" shape-rendering="crispEdges"/>
<path d="M230.342 102.408L248.373 120.44C248.654 120.721 248.813 121.103 248.813 121.501C248.813 121.899 248.655 122.28 248.374 122.562C248.092 122.843 247.711 123.001 247.313 123.001C246.915 123.001 246.533 122.843 246.252 122.562L241.656 117.965L238.12 121.5L230.342 113.722C228.872 112.252 228.032 110.268 227.999 108.19C227.967 106.111 228.745 104.102 230.168 102.587L230.342 102.408ZM230.583 105.478L230.532 105.588C230.047 106.66 229.888 107.851 230.074 109.013C230.26 110.175 230.783 111.256 231.579 112.123L231.756 112.308L238.119 118.671L240.948 115.843L230.583 105.478Z" fill="#1C1C1C"/>
<path d="M260.896 113.718C260.896 117.318 263.794 120.18 267.394 120.18C268.996 120.18 270.544 119.622 271.768 118.434C271.894 118.308 271.93 118.074 271.786 117.948L270.958 117.138C270.85 117.048 270.688 117.03 270.526 117.156C269.662 117.822 268.744 118.344 267.43 118.344C264.856 118.344 262.894 116.202 262.894 113.682C262.894 111.162 264.838 109.002 267.412 109.002C268.528 109.002 269.68 109.47 270.526 110.208C270.688 110.37 270.85 110.37 270.976 110.208L271.768 109.398C271.912 109.254 271.912 109.038 271.75 108.894C270.526 107.832 269.212 107.22 267.394 107.22C263.794 107.22 260.896 110.118 260.896 113.718ZM273.65 119.604C273.65 119.82 273.83 120 274.046 120H274.874C275.216 120 275.45 119.964 275.45 119.604V114.33C275.522 114.186 276.188 113.214 277.412 113.214C277.664 113.214 278.042 113.304 278.168 113.376C278.348 113.466 278.564 113.412 278.672 113.178L279.104 112.278C279.374 111.72 278.384 111.504 277.592 111.504C276.08 111.504 275.216 112.512 275.072 112.728L274.838 111.972C274.802 111.81 274.64 111.684 274.478 111.684H274.046C273.83 111.684 273.65 111.882 273.65 112.08V119.604ZM280.593 119.604C280.593 119.82 280.773 120 280.989 120H281.997C282.195 120 282.393 119.82 282.393 119.604V112.08C282.393 111.882 282.195 111.684 281.997 111.684H280.989C280.773 111.684 280.593 111.882 280.593 112.08V119.604ZM281.493 109.902C282.177 109.902 282.717 109.362 282.717 108.696C282.717 108.012 282.177 107.472 281.493 107.472C280.827 107.472 280.305 108.012 280.305 108.696C280.305 109.362 280.827 109.902 281.493 109.902ZM284.917 119.604C284.917 119.82 285.097 120 285.313 120H286.321C286.519 120 286.717 119.82 286.717 119.604V114.42C286.807 114.132 287.437 113.214 288.679 113.214C289.831 113.214 290.317 114.006 290.317 115.356V119.604C290.317 119.82 290.479 120 290.713 120H291.739C291.937 120 292.117 119.82 292.117 119.604V115.302C292.117 114.87 292.081 114.366 292.045 114.186C292.189 114.06 292.783 113.214 294.043 113.214C295.177 113.214 295.681 114.024 295.681 115.356V119.604C295.681 119.82 295.825 120 296.077 120H297.085C297.319 120 297.481 119.82 297.481 119.604V115.428C297.481 113.268 296.851 111.504 294.313 111.504C292.729 111.504 291.739 112.584 291.505 112.818C290.893 111.972 290.173 111.504 288.967 111.504C287.383 111.504 286.501 112.458 286.321 112.656L286.087 111.936C286.033 111.774 285.925 111.684 285.727 111.684H285.313C285.097 111.684 284.917 111.882 284.917 112.08V119.604ZM299.407 115.842C299.407 118.218 301.045 120.198 303.565 120.198C304.951 120.198 306.049 119.694 306.643 119.172C306.895 118.956 306.823 118.794 306.679 118.614L306.193 117.858C306.049 117.642 305.887 117.696 305.707 117.822C305.203 118.182 304.627 118.524 303.673 118.524C302.215 118.524 301.207 117.372 301.189 116.256H306.931C307.111 116.256 307.291 116.112 307.309 115.896C307.327 115.752 307.345 115.464 307.345 115.32C307.345 113.106 305.707 111.504 303.547 111.504C301.045 111.504 299.407 113.502 299.407 115.842ZM301.279 114.924C301.405 113.88 302.197 113.034 303.511 113.034C304.735 113.034 305.527 113.916 305.563 114.924H301.279Z" fill="#1C1C1C"/>
</g>
<g filter="url(#filter5_d_1_141)">
<rect x="358" y="91" width="147" height="45" rx="22.5" fill="white" shape-rendering="crispEdges"/>
<path d="M396.11 120.45C395.004 120.043 394.02 119.361 393.251 118.469C392.481 117.577 391.951 116.503 391.71 115.35L390.05 107.54C389.81 106.46 390.5 105.4 391.58 105.17L401.35 103.1L401.38 103.09C402.45 102.88 403.5 103.57 403.72 104.63L404.07 106.3L408.42 107.23H408.45C409.5 107.47 410.18 108.53 409.96 109.59L408.3 117.41C408.108 118.308 407.742 119.16 407.221 119.917C406.7 120.673 406.035 121.32 405.264 121.819C404.494 122.319 403.632 122.662 402.729 122.828C401.826 122.995 400.898 122.982 400 122.79C398.476 122.472 397.105 121.647 396.11 120.45ZM408 109.18L398.23 107.1L396.57 114.92V114.95C396 117.63 397.73 120.27 400.42 120.84C403.11 121.41 405.77 119.69 406.34 117L408 109.18ZM404 117.5C403.684 118.035 403.208 118.457 402.639 118.706C402.07 118.956 401.437 119.02 400.83 118.89C400.224 118.76 399.675 118.445 399.257 117.988C398.839 117.531 398.575 116.955 398.5 116.34L404 117.5ZM396.47 106.17L392 107.13L393.66 114.94L393.67 114.97C393.82 115.68 394.12 116.32 394.53 116.87C394.43 116.1 394.45 115.3 394.62 114.5L395.05 112.5C394.6 112.42 394.21 112.17 394 111.81C394.06 111.2 394.56 110.66 395.25 110.5H395.5L396.28 106.69C396.32 106.5 396.38 106.33 396.47 106.17ZM403.03 113.23C403.35 112.7 404.03 112.42 404.72 112.57C405.41 112.71 405.91 113.24 406 113.86C405.67 114.38 405 114.66 404.3 114.5C403.61 114.37 403.11 113.84 403.03 113.23ZM398.15 112.19C398.47 111.66 399.14 111.38 399.83 111.53C400.5 111.67 401.03 112.21 401.11 112.82C400.78 113.34 400.11 113.63 399.42 113.5C398.73 113.33 398.23 112.8 398.15 112.19ZM399.97 105.43L401.93 105.85L401.77 105.05L399.97 105.43Z" fill="#1C1C1C"/>
<path d="M424.061 119.658C424.061 119.838 424.205 120 424.385 120H428.525C431.999 120 434.843 117.174 434.843 113.682C434.843 110.226 431.999 107.4 428.525 107.4H424.385C424.205 107.4 424.061 107.562 424.061 107.742V119.658ZM425.897 118.29V109.11H428.327C430.973 109.11 432.845 111.036 432.845 113.682C432.845 116.346 430.973 118.29 428.327 118.29H425.897ZM436.814 119.604C436.814 119.82 436.994 120 437.21 120H438.038C438.38 120 438.614 119.964 438.614 119.604V114.33C438.686 114.186 439.352 113.214 440.576 113.214C440.828 113.214 441.206 113.304 441.332 113.376C441.512 113.466 441.728 113.412 441.836 113.178L442.268 112.278C442.538 111.72 441.548 111.504 440.756 111.504C439.244 111.504 438.38 112.512 438.236 112.728L438.002 111.972C437.966 111.81 437.804 111.684 437.642 111.684H437.21C436.994 111.684 436.814 111.882 436.814 112.08V119.604ZM443.057 117.426C443.057 119.154 444.173 120.198 445.739 120.198C447.017 120.198 447.845 119.586 448.295 119.154L448.493 119.712C448.583 119.928 448.673 120 448.835 120H449.429C449.627 120 449.825 119.82 449.825 119.604V115.176C449.825 113.106 449.573 111.504 446.909 111.504C445.379 111.504 444.191 111.918 444.047 111.972C443.849 112.044 443.723 112.17 443.777 112.458L443.939 113.142C443.993 113.376 444.155 113.538 444.407 113.484C444.839 113.358 445.775 113.088 446.729 113.088C447.773 113.088 448.097 113.682 448.061 114.996C448.061 114.996 447.251 114.744 446.387 114.744C444.245 114.744 443.057 115.896 443.057 117.426ZM444.821 117.408C444.821 116.544 445.559 116.04 446.531 116.04C447.287 116.04 447.935 116.256 448.043 116.328V117.714C447.791 118.128 446.945 118.722 446.117 118.722C445.253 118.722 444.821 118.146 444.821 117.408ZM452.265 119.604C452.265 119.82 452.445 120 452.661 120H453.669C453.867 120 454.065 119.82 454.065 119.604V114.42C454.155 114.132 454.785 113.214 456.027 113.214C457.179 113.214 457.665 114.006 457.665 115.356V119.604C457.665 119.82 457.827 120 458.061 120H459.087C459.285 120 459.465 119.82 459.465 119.604V115.302C459.465 114.87 459.429 114.366 459.393 114.186C459.537 114.06 460.131 113.214 461.391 113.214C462.525 113.214 463.029 114.024 463.029 115.356V119.604C463.029 119.82 463.173 120 463.425 120H464.433C464.667 120 464.829 119.82 464.829 119.604V115.428C464.829 113.268 464.199 111.504 461.661 111.504C460.077 111.504 459.087 112.584 458.853 112.818C458.241 111.972 457.521 111.504 456.315 111.504C454.731 111.504 453.849 112.458 453.669 112.656L453.435 111.936C453.381 111.774 453.273 111.684 453.075 111.684H452.661C452.445 111.684 452.265 111.882 452.265 112.08V119.604ZM466.629 117.426C466.629 119.154 467.745 120.198 469.311 120.198C470.589 120.198 471.417 119.586 471.867 119.154L472.065 119.712C472.155 119.928 472.245 120 472.407 120H473.001C473.199 120 473.397 119.82 473.397 119.604V115.176C473.397 113.106 473.145 111.504 470.481 111.504C468.951 111.504 467.763 111.918 467.619 111.972C467.421 112.044 467.295 112.17 467.349 112.458L467.511 113.142C467.565 113.376 467.727 113.538 467.979 113.484C468.411 113.358 469.347 113.088 470.301 113.088C471.345 113.088 471.669 113.682 471.633 114.996C471.633 114.996 470.823 114.744 469.959 114.744C467.817 114.744 466.629 115.896 466.629 117.426ZM468.393 117.408C468.393 116.544 469.131 116.04 470.103 116.04C470.859 116.04 471.507 116.256 471.615 116.328V117.714C471.363 118.128 470.517 118.722 469.689 118.722C468.825 118.722 468.393 118.146 468.393 117.408Z" fill="#1C1C1C"/>
</g>
<g filter="url(#filter6_d_1_141)">
<rect x="16" y="166" width="173" height="45" rx="22.5" fill="white" shape-rendering="crispEdges"/>
<path d="M65.8 197H59.2V183.184C59.9658 182.765 60.5538 181.955 60.8268 180.958L65.7768 178.884C66.091 178.752 66.2601 178.327 66.1548 177.934L65.7734 176.512C65.668 176.119 65.3279 175.908 65.0136 176.039L60.5916 177.892C60.0737 176.767 59.1134 176 58 176C56.3433 176 55 177.679 55 179.75C55 179.911 55.0221 180.065 55.0379 180.22L50.2233 182.238C49.909 182.37 49.7399 182.795 49.8453 183.188L50.2266 184.61C50.332 185.003 50.6721 185.214 50.9864 185.082L56.3132 182.85C56.4659 182.98 56.6294 183.09 56.8004 183.184V199.25C56.8004 199.664 57.0689 200 57.4004 200H65.8004C66.1319 200 66.4004 199.664 66.4004 199.25V197.75C66.4 197.336 66.1315 197 65.8 197ZM69.9993 190.25C69.9993 189.492 70.0495 189.841 66.8099 181.742C66.148 180.087 64.2528 180.084 63.5898 181.742C60.3228 189.91 60.4008 189.515 60.4008 190.25H60.4C60.4 192.321 62.5491 194 65.2 194C67.8509 194 70 192.321 70 190.25H69.9993ZM62.5 189.5L65.2 182.75L67.9 189.5H62.5ZM52.4099 187.742C51.748 186.088 49.8528 186.084 49.1897 187.742C45.9227 195.91 46.0008 195.515 46.0008 196.25H46C46 198.321 48.1491 200 50.8 200C53.4509 200 55.6 198.321 55.6 196.25H55.5992C55.5992 195.492 55.6495 195.841 52.4099 187.742ZM48.1 195.5L50.8 188.75L53.5 195.5H48.1Z" fill="#1C1C1C"/>
<path d="M81.7278 194.658C81.7278 194.838 81.8718 195 82.0518 195H86.1918C89.6658 195 92.5098 192.174 92.5098 188.682C92.5098 185.226 89.6658 182.4 86.1918 182.4H82.0518C81.8718 182.4 81.7278 182.562 81.7278 182.742V194.658ZM83.5638 193.29V184.11H85.9938C88.6398 184.11 90.5118 186.036 90.5118 188.682C90.5118 191.346 88.6398 193.29 85.9938 193.29H83.5638ZM96.5494 194.712L94.8754 198.726C94.7314 199.014 94.9294 199.284 95.2354 199.284H96.3874C96.5494 199.284 96.6574 199.158 96.7294 199.032L101.805 187.224C101.931 186.936 101.787 186.684 101.445 186.684H100.329C100.131 186.684 99.9694 186.72 99.8974 186.918L97.5574 192.624H97.5214L95.5954 186.918C95.5414 186.774 95.3614 186.684 95.2354 186.684H94.0474C93.7234 186.684 93.5794 186.936 93.6874 187.224L96.5494 194.712ZM105.769 195.198C107.623 195.198 108.739 194.064 108.739 192.768C108.739 191.22 107.587 190.662 106.057 190.014C105.229 189.654 104.635 189.33 104.635 188.79C104.635 188.412 104.977 188.052 105.697 188.052C106.345 188.052 106.903 188.214 107.479 188.466C107.641 188.538 107.893 188.556 108.019 188.304L108.307 187.728C108.415 187.512 108.325 187.26 108.127 187.116C107.713 186.846 106.849 186.504 105.697 186.504C103.681 186.504 102.943 187.728 102.943 188.772C102.943 190.14 103.915 190.824 105.193 191.4C106.345 191.922 106.975 192.282 106.975 192.84C106.975 193.308 106.579 193.65 105.877 193.65C104.887 193.65 104.293 193.308 103.807 193.038C103.591 192.912 103.357 192.966 103.267 193.146L102.889 193.92C102.799 194.1 102.907 194.262 103.033 194.352C103.501 194.676 104.455 195.198 105.769 195.198ZM111.211 192.714C111.211 194.19 111.661 195.198 113.317 195.198C114.307 195.198 115.279 194.82 115.621 194.604C115.819 194.478 115.909 194.334 115.819 194.118L115.495 193.272C115.423 193.092 115.261 192.948 115.009 193.092C114.703 193.272 114.199 193.488 113.677 193.488C113.281 193.488 113.011 193.344 113.011 192.642V188.214H115.207C115.423 188.214 115.603 188.016 115.603 187.818V187.08C115.603 186.846 115.423 186.684 115.207 186.684H113.011V184.362C113.011 184.146 112.849 183.966 112.633 183.966H111.607C111.391 183.966 111.211 184.146 111.211 184.362V186.684H110.257C110.023 186.684 109.861 186.846 109.861 187.08V187.818C109.861 188.016 110.023 188.214 110.257 188.214H111.211V192.714ZM116.968 190.824C116.968 193.2 118.876 195.198 121.216 195.198C123.538 195.198 125.446 193.2 125.446 190.824C125.446 188.484 123.538 186.504 121.216 186.504C118.876 186.504 116.968 188.484 116.968 190.824ZM118.732 190.824C118.732 189.33 119.812 188.214 121.216 188.214C122.602 188.214 123.682 189.33 123.682 190.824C123.682 192.354 122.602 193.488 121.216 193.488C119.812 193.488 118.732 192.354 118.732 190.824ZM129.276 194.622C129.42 194.712 130.32 195.198 131.4 195.198C133.668 195.198 135.396 193.272 135.396 190.842C135.396 188.466 133.758 186.504 131.472 186.504C129.942 186.504 129.006 187.35 128.862 187.494L128.646 186.954C128.574 186.756 128.466 186.684 128.286 186.684H127.836C127.62 186.684 127.44 186.882 127.44 187.08V198.888C127.44 199.104 127.62 199.284 127.836 199.284H128.844C129.114 199.284 129.276 199.122 129.276 198.888V194.622ZM129.24 192.876V189.384C129.312 189.132 130.032 188.214 131.238 188.214C132.66 188.214 133.596 189.366 133.596 190.842C133.596 192.336 132.516 193.488 131.166 193.488C130.05 193.488 129.24 192.876 129.24 192.876ZM137.406 194.604C137.406 194.82 137.586 195 137.802 195H138.81C139.008 195 139.206 194.82 139.206 194.604V187.08C139.206 186.882 139.008 186.684 138.81 186.684H137.802C137.586 186.684 137.406 186.882 137.406 187.08V194.604ZM138.306 184.902C138.99 184.902 139.53 184.362 139.53 183.696C139.53 183.012 138.99 182.472 138.306 182.472C137.64 182.472 137.118 183.012 137.118 183.696C137.118 184.362 137.64 184.902 138.306 184.902ZM141.101 192.426C141.101 194.154 142.217 195.198 143.783 195.198C145.061 195.198 145.889 194.586 146.339 194.154L146.537 194.712C146.627 194.928 146.717 195 146.879 195H147.473C147.671 195 147.869 194.82 147.869 194.604V190.176C147.869 188.106 147.617 186.504 144.953 186.504C143.423 186.504 142.235 186.918 142.091 186.972C141.893 187.044 141.767 187.17 141.821 187.458L141.983 188.142C142.037 188.376 142.199 188.538 142.451 188.484C142.883 188.358 143.819 188.088 144.773 188.088C145.817 188.088 146.141 188.682 146.105 189.996C146.105 189.996 145.295 189.744 144.431 189.744C142.289 189.744 141.101 190.896 141.101 192.426ZM142.865 192.408C142.865 191.544 143.603 191.04 144.575 191.04C145.331 191.04 145.979 191.256 146.087 191.328V192.714C145.835 193.128 144.989 193.722 144.161 193.722C143.297 193.722 142.865 193.146 142.865 192.408ZM150.309 194.604C150.309 194.82 150.489 195 150.705 195H151.623C151.965 195 152.109 194.874 152.109 194.604V189.42C152.235 189.132 152.991 188.214 154.305 188.214C155.385 188.214 155.943 189.006 155.943 190.356V194.604C155.943 194.82 156.123 195 156.339 195H157.347C157.545 195 157.743 194.82 157.743 194.604V190.428C157.743 188.268 157.059 186.504 154.521 186.504C152.865 186.504 151.911 187.44 151.731 187.656L151.479 186.936C151.443 186.774 151.317 186.684 151.137 186.684H150.705C150.489 186.684 150.309 186.882 150.309 187.08V194.604Z" fill="#1C1C1C"/>
</g>
<g filter="url(#filter7_d_1_141)">
<rect x="209" y="166" width="148" height="45" rx="22.5" fill="white" shape-rendering="crispEdges"/>
<path d="M251 178C246.037 178 242 182.038 242 187V195H242.051C242.296 196.691 243.741 198 245.5 198C246.674 198 247.574 197.583 248.172 196.826C248.544 197.199 248.986 197.495 249.473 197.697C249.96 197.899 250.482 198.002 251.009 198C251.536 197.999 252.057 197.893 252.543 197.689C253.029 197.485 253.47 197.187 253.84 196.812C254.441 197.574 255.344 198 256.5 198C258.43 198 260 196.43 260 194.5V187C260 182.038 255.963 178 251 178ZM258 194.5C258 195.327 257.327 196 256.5 196C256.051 196 255 196 255 194V193H253V194C253 195.103 252.103 196 251 196C249.897 196 249 195.103 249 194V193H247V194C247 195.845 246.226 196 245.5 196C244.673 196 244 195.327 244 194.5V187C244 183.14 247.141 180 251 180C254.859 180 258 183.14 258 187V194.5Z" fill="#1C1C1C"/>
<path d="M248 188C249.105 188 250 187.105 250 186C250 184.895 249.105 184 248 184C246.895 184 246 184.895 246 186C246 187.105 246.895 188 248 188Z" fill="#1C1C1C"/>
<path d="M254 188C255.105 188 256 187.105 256 186C256 184.895 255.105 184 254 184C252.895 184 252 184.895 252 186C252 187.105 252.895 188 254 188Z" fill="#1C1C1C"/>
<path d="M274.726 194.658C274.726 194.838 274.888 195 275.068 195H276.256C276.454 195 276.598 194.838 276.598 194.658V189.456H283.186V194.658C283.186 194.838 283.33 195 283.528 195H284.716C284.896 195 285.058 194.838 285.058 194.658V182.742C285.058 182.562 284.896 182.4 284.716 182.4H283.528C283.33 182.4 283.186 182.562 283.186 182.742V187.764H276.598V182.742C276.598 182.562 276.454 182.4 276.256 182.4H275.068C274.888 182.4 274.726 182.562 274.726 182.742V194.658ZM287.15 190.824C287.15 193.2 289.058 195.198 291.398 195.198C293.72 195.198 295.628 193.2 295.628 190.824C295.628 188.484 293.72 186.504 291.398 186.504C289.058 186.504 287.15 188.484 287.15 190.824ZM288.914 190.824C288.914 189.33 289.994 188.214 291.398 188.214C292.784 188.214 293.864 189.33 293.864 190.824C293.864 192.354 292.784 193.488 291.398 193.488C289.994 193.488 288.914 192.354 288.914 190.824ZM297.621 194.604C297.621 194.82 297.801 195 298.017 195H298.845C299.187 195 299.421 194.964 299.421 194.604V189.33C299.493 189.186 300.159 188.214 301.383 188.214C301.635 188.214 302.013 188.304 302.139 188.376C302.319 188.466 302.535 188.412 302.643 188.178L303.075 187.278C303.345 186.72 302.355 186.504 301.563 186.504C300.051 186.504 299.187 187.512 299.043 187.728L298.809 186.972C298.773 186.81 298.611 186.684 298.449 186.684H298.017C297.801 186.684 297.621 186.882 297.621 187.08V194.604ZM304.565 194.604C304.565 194.82 304.745 195 304.961 195H305.789C306.131 195 306.365 194.964 306.365 194.604V189.33C306.437 189.186 307.103 188.214 308.327 188.214C308.579 188.214 308.957 188.304 309.083 188.376C309.263 188.466 309.479 188.412 309.587 188.178L310.019 187.278C310.289 186.72 309.299 186.504 308.507 186.504C306.995 186.504 306.131 187.512 305.987 187.728L305.753 186.972C305.717 186.81 305.555 186.684 305.393 186.684H304.961C304.745 186.684 304.565 186.882 304.565 187.08V194.604ZM310.758 190.824C310.758 193.2 312.666 195.198 315.006 195.198C317.328 195.198 319.236 193.2 319.236 190.824C319.236 188.484 317.328 186.504 315.006 186.504C312.666 186.504 310.758 188.484 310.758 190.824ZM312.522 190.824C312.522 189.33 313.602 188.214 315.006 188.214C316.392 188.214 317.472 189.33 317.472 190.824C317.472 192.354 316.392 193.488 315.006 193.488C313.602 193.488 312.522 192.354 312.522 190.824ZM321.229 194.604C321.229 194.82 321.409 195 321.625 195H322.453C322.795 195 323.029 194.964 323.029 194.604V189.33C323.101 189.186 323.767 188.214 324.991 188.214C325.243 188.214 325.621 188.304 325.747 188.376C325.927 188.466 326.143 188.412 326.251 188.178L326.683 187.278C326.953 186.72 325.963 186.504 325.171 186.504C323.659 186.504 322.795 187.512 322.651 187.728L322.417 186.972C322.381 186.81 322.219 186.684 322.057 186.684H321.625C321.409 186.684 321.229 186.882 321.229 187.08V194.604Z" fill="#1C1C1C"/>
</g>
<g filter="url(#filter8_d_1_141)">
<rect x="377" y="166" width="158" height="45" rx="22.5" fill="white" shape-rendering="crispEdges"/>
<path d="M416.374 182.408C415.504 182.442 414.718 182.752 414.297 183.173C414.251 183.219 414.195 183.256 414.135 183.281C414.074 183.306 414.009 183.319 413.943 183.319C413.878 183.319 413.813 183.306 413.752 183.281C413.691 183.256 413.636 183.219 413.59 183.173C413.543 183.126 413.507 183.071 413.481 183.01C413.456 182.95 413.443 182.885 413.443 182.819C413.443 182.753 413.456 182.688 413.482 182.628C413.507 182.567 413.544 182.512 413.59 182.466C414.239 181.817 415.295 181.449 416.335 181.409C417.383 181.368 418.526 181.655 419.327 182.456C419.421 182.549 419.473 182.677 419.473 182.809C419.473 182.942 419.421 183.069 419.327 183.163C419.233 183.257 419.106 183.309 418.973 183.309C418.84 183.309 418.713 183.256 418.62 183.163C418.075 182.617 417.238 182.374 416.374 182.408V182.408Z" fill="#1C1C1C"/>
<path fill-rule="evenodd" clip-rule="evenodd" d="M421.468 189.692C422.459 188.52 423.002 187.035 423 185.5C423 181.91 420.09 179 416.5 179C412.91 179 410 181.91 410 185.5C410 189.09 412.91 192 416.5 192C418.097 192 419.56 191.424 420.692 190.468L420.5 191.572L424.257 195.329L426.329 193.257L422.572 189.5L421.468 189.692ZM416.5 190.5C419.261 190.5 421.5 188.261 421.5 185.5C421.5 182.739 419.261 180.5 416.5 180.5C413.739 180.5 411.5 182.739 411.5 185.5C411.5 188.261 413.739 190.5 416.5 190.5Z" fill="#1C1C1C"/>
<path d="M424.964 196.036L427.036 193.964L427.714 194.642C428.096 195.023 428.096 195.642 427.714 196.023L427.023 196.714C426.642 197.095 426.023 197.095 425.642 196.714L424.964 196.036Z" fill="#1C1C1C"/>
<path d="M442.189 194.586C442.153 194.838 442.279 195 442.531 195H443.701C443.845 195 444.007 194.874 444.025 194.748L445.321 186.702C445.339 186.702 445.375 186.702 445.393 186.702L448.651 194.982C448.687 195.09 448.813 195.18 448.957 195.18H449.281C449.443 195.18 449.551 195.09 449.587 194.982L452.827 186.702C452.827 186.702 452.863 186.702 452.881 186.702L454.213 194.748C454.249 194.874 454.393 195 454.555 195H455.725C455.977 195 456.103 194.838 456.049 194.586L453.835 182.49C453.799 182.346 453.655 182.22 453.511 182.22H453.223C453.097 182.22 452.953 182.31 452.917 182.418L449.173 191.616H449.101L445.339 182.418C445.303 182.31 445.141 182.22 445.033 182.22H444.745C444.601 182.22 444.457 182.346 444.421 182.49L442.189 194.586ZM459.805 194.712L458.131 198.726C457.987 199.014 458.185 199.284 458.491 199.284H459.643C459.805 199.284 459.913 199.158 459.985 199.032L465.061 187.224C465.187 186.936 465.043 186.684 464.701 186.684H463.585C463.387 186.684 463.225 186.72 463.153 186.918L460.813 192.624H460.777L458.851 186.918C458.797 186.774 458.617 186.684 458.491 186.684H457.303C456.979 186.684 456.835 186.936 456.943 187.224L459.805 194.712ZM469.025 195.198C470.879 195.198 471.995 194.064 471.995 192.768C471.995 191.22 470.843 190.662 469.313 190.014C468.485 189.654 467.891 189.33 467.891 188.79C467.891 188.412 468.233 188.052 468.953 188.052C469.601 188.052 470.159 188.214 470.735 188.466C470.897 188.538 471.149 188.556 471.275 188.304L471.563 187.728C471.671 187.512 471.581 187.26 471.383 187.116C470.969 186.846 470.105 186.504 468.953 186.504C466.937 186.504 466.199 187.728 466.199 188.772C466.199 190.14 467.171 190.824 468.449 191.4C469.601 191.922 470.231 192.282 470.231 192.84C470.231 193.308 469.835 193.65 469.133 193.65C468.143 193.65 467.549 193.308 467.063 193.038C466.847 192.912 466.613 192.966 466.523 193.146L466.145 193.92C466.055 194.1 466.163 194.262 466.289 194.352C466.757 194.676 467.711 195.198 469.025 195.198ZM474.466 192.714C474.466 194.19 474.916 195.198 476.572 195.198C477.562 195.198 478.534 194.82 478.876 194.604C479.074 194.478 479.164 194.334 479.074 194.118L478.75 193.272C478.678 193.092 478.516 192.948 478.264 193.092C477.958 193.272 477.454 193.488 476.932 193.488C476.536 193.488 476.266 193.344 476.266 192.642V188.214H478.462C478.678 188.214 478.858 188.016 478.858 187.818V187.08C478.858 186.846 478.678 186.684 478.462 186.684H476.266V184.362C476.266 184.146 476.104 183.966 475.888 183.966H474.862C474.646 183.966 474.466 184.146 474.466 184.362V186.684H473.512C473.278 186.684 473.116 186.846 473.116 187.08V187.818C473.116 188.016 473.278 188.214 473.512 188.214H474.466V192.714ZM480.242 190.842C480.242 193.218 481.88 195.198 484.4 195.198C485.786 195.198 486.884 194.694 487.478 194.172C487.73 193.956 487.658 193.794 487.514 193.614L487.028 192.858C486.884 192.642 486.722 192.696 486.542 192.822C486.038 193.182 485.462 193.524 484.508 193.524C483.05 193.524 482.042 192.372 482.024 191.256H487.766C487.946 191.256 488.126 191.112 488.144 190.896C488.162 190.752 488.18 190.464 488.18 190.32C488.18 188.106 486.542 186.504 484.382 186.504C481.88 186.504 480.242 188.502 480.242 190.842ZM482.114 189.924C482.24 188.88 483.032 188.034 484.346 188.034C485.57 188.034 486.362 188.916 486.398 189.924H482.114ZM490.063 194.604C490.063 194.82 490.243 195 490.459 195H491.287C491.629 195 491.863 194.964 491.863 194.604V189.33C491.935 189.186 492.601 188.214 493.825 188.214C494.077 188.214 494.455 188.304 494.581 188.376C494.761 188.466 494.977 188.412 495.085 188.178L495.517 187.278C495.787 186.72 494.797 186.504 494.005 186.504C492.493 186.504 491.629 187.512 491.485 187.728L491.251 186.972C491.215 186.81 491.053 186.684 490.891 186.684H490.459C490.243 186.684 490.063 186.882 490.063 187.08V194.604ZM499.022 194.712L497.348 198.726C497.204 199.014 497.402 199.284 497.708 199.284H498.86C499.022 199.284 499.13 199.158 499.202 199.032L504.278 187.224C504.404 186.936 504.26 186.684 503.918 186.684H502.802C502.604 186.684 502.442 186.72 502.37 186.918L500.03 192.624H499.994L498.068 186.918C498.014 186.774 497.834 186.684 497.708 186.684H496.52C496.196 186.684 496.052 186.936 496.16 187.224L499.022 194.712Z" fill="#1C1C1C"/>
</g>
<g filter="url(#filter9_d_1_141)">
<rect x="16" y="241" width="167" height="45" rx="22.5" fill="white" shape-rendering="crispEdges"/>
<g clip-path="url(#clip0_1_141)">
<path fill-rule="evenodd" clip-rule="evenodd" d="M58 254.63L56.9245 253.524C55.2295 251.783 52.06 252.359 50.9095 254.604C50.3845 255.632 50.233 257.165 51.2635 259.197C52.24 261.129 54.28 263.48 58 266.063C61.7185 263.478 63.7585 261.128 64.7365 259.197C65.767 257.165 65.617 255.632 65.0905 254.606C63.94 252.359 60.7705 251.783 59.0755 253.524L58 254.63ZM57.265 267.38C41.095 256.22 52.765 247.647 57.8035 252.285C57.871 252.347 57.937 252.411 58.0015 252.479C58.066 252.411 58.132 252.347 58.1995 252.285C63.2395 247.647 74.905 256.221 58.735 267.38L59.0875 268.082C59.1096 268.126 59.1227 268.174 59.1262 268.223C59.1297 268.273 59.1235 268.322 59.1079 268.369C59.0923 268.416 59.0676 268.459 59.0353 268.496C59.003 268.533 58.9636 268.564 58.9195 268.586C58.8754 268.608 58.8273 268.621 58.7781 268.625C58.7289 268.628 58.6795 268.622 58.6327 268.606C58.5859 268.591 58.5426 268.566 58.5054 268.534C58.4681 268.501 58.4376 268.462 58.4155 268.418L58.4035 268.392C58.4155 268.557 58.4335 268.695 58.459 268.827C58.54 269.232 58.7005 269.559 59.0875 270.332C59.5195 271.199 59.44 272.057 59.2015 272.775C58.966 273.479 58.5685 274.076 58.3195 274.448L58.3135 274.458C58.2861 274.499 58.2509 274.535 58.21 274.562C58.169 274.589 58.123 274.608 58.0747 274.618C58.0264 274.628 57.9766 274.628 57.9283 274.618C57.8799 274.608 57.834 274.589 57.793 274.562C57.752 274.535 57.7169 274.499 57.6895 274.458C57.6621 274.417 57.6431 274.372 57.6335 274.323C57.6238 274.275 57.6239 274.225 57.6335 274.177C57.6431 274.128 57.6621 274.082 57.6895 274.041C57.9415 273.663 58.2895 273.141 58.489 272.537C58.6885 271.943 58.7335 271.301 58.4155 270.668L58.396 270.626C58.036 269.906 57.826 269.489 57.724 268.973C57.682 268.75 57.6559 268.525 57.646 268.298L57.586 268.418C57.5642 268.462 57.5338 268.502 57.4965 268.535C57.4593 268.567 57.416 268.592 57.3691 268.608C57.3222 268.624 57.2726 268.63 57.2233 268.627C57.1739 268.623 57.1257 268.61 57.0815 268.588C57.0372 268.566 56.9978 268.535 56.9655 268.497C56.9331 268.46 56.9086 268.417 56.8931 268.369C56.8777 268.322 56.8717 268.273 56.8756 268.223C56.8794 268.174 56.893 268.126 56.9155 268.082L57.268 267.38H57.265ZM55.0195 254.09C54.046 253.82 52.795 254.214 52.2445 255.287C52.048 255.674 51.877 256.32 52.1245 257.289C52.219 257.655 52.7455 257.586 52.855 257.225C53.17 256.179 53.7955 255.054 54.8935 254.687C55.219 254.577 55.3495 254.181 55.0195 254.09Z" fill="#1C1C1C"/>
</g>
<path d="M81.7776 269.658C81.7776 269.838 81.9216 270 82.1196 270H83.2896C83.4696 270 83.6316 269.838 83.6316 269.658V265.068H86.3496L88.7076 269.766C88.7796 269.91 88.8876 270 89.0856 270H90.4356C90.7416 270 90.8676 269.712 90.7416 269.478L88.2756 264.906C89.8416 264.276 90.9396 262.908 90.9396 261.252C90.9396 259.11 89.1756 257.4 87.0156 257.4H82.1196C81.9216 257.4 81.7776 257.562 81.7776 257.742V269.658ZM83.6676 263.52V259.146H86.8716C88.0416 259.146 89.0676 260.118 89.0676 261.288C89.0676 262.53 88.0416 263.52 86.8716 263.52H83.6676ZM92.1452 265.824C92.1452 268.2 94.0532 270.198 96.3932 270.198C98.7152 270.198 100.623 268.2 100.623 265.824C100.623 263.484 98.7152 261.504 96.3932 261.504C94.0532 261.504 92.1452 263.484 92.1452 265.824ZM93.9092 265.824C93.9092 264.33 94.9892 263.214 96.3932 263.214C97.7792 263.214 98.8592 264.33 98.8592 265.824C98.8592 267.354 97.7792 268.488 96.3932 268.488C94.9892 268.488 93.9092 267.354 93.9092 265.824ZM102.616 269.604C102.616 269.82 102.796 270 103.012 270H104.02C104.218 270 104.416 269.82 104.416 269.604V264.42C104.506 264.132 105.136 263.214 106.378 263.214C107.53 263.214 108.016 264.006 108.016 265.356V269.604C108.016 269.82 108.178 270 108.412 270H109.438C109.636 270 109.816 269.82 109.816 269.604V265.302C109.816 264.87 109.78 264.366 109.744 264.186C109.888 264.06 110.482 263.214 111.742 263.214C112.876 263.214 113.38 264.024 113.38 265.356V269.604C113.38 269.82 113.524 270 113.776 270H114.784C115.018 270 115.18 269.82 115.18 269.604V265.428C115.18 263.268 114.55 261.504 112.012 261.504C110.428 261.504 109.438 262.584 109.204 262.818C108.592 261.972 107.872 261.504 106.666 261.504C105.082 261.504 104.2 262.458 104.02 262.656L103.786 261.936C103.732 261.774 103.624 261.684 103.426 261.684H103.012C102.796 261.684 102.616 261.882 102.616 262.08V269.604ZM116.981 267.426C116.981 269.154 118.097 270.198 119.663 270.198C120.941 270.198 121.769 269.586 122.219 269.154L122.417 269.712C122.507 269.928 122.597 270 122.759 270H123.353C123.551 270 123.749 269.82 123.749 269.604V265.176C123.749 263.106 123.497 261.504 120.833 261.504C119.303 261.504 118.115 261.918 117.971 261.972C117.773 262.044 117.647 262.17 117.701 262.458L117.863 263.142C117.917 263.376 118.079 263.538 118.331 263.484C118.763 263.358 119.699 263.088 120.653 263.088C121.697 263.088 122.021 263.682 121.985 264.996C121.985 264.996 121.175 264.744 120.311 264.744C118.169 264.744 116.981 265.896 116.981 267.426ZM118.745 267.408C118.745 266.544 119.483 266.04 120.455 266.04C121.211 266.04 121.859 266.256 121.967 266.328V267.714C121.715 268.128 120.869 268.722 120.041 268.722C119.177 268.722 118.745 268.146 118.745 267.408ZM126.189 269.604C126.189 269.82 126.369 270 126.585 270H127.503C127.845 270 127.989 269.874 127.989 269.604V264.42C128.115 264.132 128.871 263.214 130.185 263.214C131.265 263.214 131.823 264.006 131.823 265.356V269.604C131.823 269.82 132.003 270 132.219 270H133.227C133.425 270 133.623 269.82 133.623 269.604V265.428C133.623 263.268 132.939 261.504 130.401 261.504C128.745 261.504 127.791 262.44 127.611 262.656L127.359 261.936C127.323 261.774 127.197 261.684 127.017 261.684H126.585C126.369 261.684 126.189 261.882 126.189 262.08V269.604ZM135.528 265.86C135.528 268.362 137.454 270.198 139.776 270.198C141.216 270.198 142.332 269.496 143.016 268.47C143.16 268.254 143.07 268.056 142.872 267.876L142.314 267.426C142.134 267.282 141.936 267.282 141.756 267.462C141.306 267.876 140.874 268.488 139.794 268.488C138.408 268.488 137.328 267.336 137.328 265.842C137.328 264.366 138.426 263.214 139.848 263.214C140.514 263.214 141.18 263.628 141.558 264.042C141.702 264.186 141.864 264.348 142.098 264.132L142.746 263.538C142.926 263.376 142.98 263.142 142.818 262.944C142.044 261.99 141.09 261.504 139.794 261.504C137.49 261.504 135.528 263.412 135.528 265.86ZM144.3 265.842C144.3 268.218 145.938 270.198 148.458 270.198C149.844 270.198 150.942 269.694 151.536 269.172C151.788 268.956 151.716 268.794 151.572 268.614L151.086 267.858C150.942 267.642 150.78 267.696 150.6 267.822C150.096 268.182 149.52 268.524 148.566 268.524C147.108 268.524 146.1 267.372 146.082 266.256H151.824C152.004 266.256 152.184 266.112 152.202 265.896C152.22 265.752 152.238 265.464 152.238 265.32C152.238 263.106 150.6 261.504 148.44 261.504C145.938 261.504 144.3 263.502 144.3 265.842ZM146.172 264.924C146.298 263.88 147.09 263.034 148.404 263.034C149.628 263.034 150.42 263.916 150.456 264.924H146.172Z" fill="#1C1C1C"/>
</g>
<g filter="url(#filter10_d_1_141)">
<rect x="203" y="241" width="138" height="45" rx="22.5" fill="white" shape-rendering="crispEdges"/>
<path d="M246 261L251.949 270.516C251.979 270.564 251.995 270.619 251.996 270.675C251.998 270.732 251.984 270.787 251.957 270.837C251.93 270.886 251.89 270.927 251.841 270.956C251.793 270.984 251.737 271 251.681 271H238.319C238.262 271 238.207 270.984 238.158 270.955C238.109 270.926 238.07 270.885 238.042 270.835C238.015 270.785 238.002 270.729 238.004 270.673C238.006 270.616 238.023 270.561 238.053 270.513L244 261V254H246V261ZM240 252V254H242V260.46L236.359 269.45C236.139 269.801 236.017 270.204 236.005 270.617C235.994 271.031 236.093 271.44 236.293 271.802C236.493 272.165 236.787 272.467 237.143 272.677C237.499 272.888 237.905 272.999 238.319 273H251.681C252.095 272.999 252.501 272.888 252.857 272.677C253.213 272.467 253.507 272.165 253.707 271.802C253.907 271.44 254.006 271.031 253.995 270.617C253.983 270.204 253.861 269.801 253.641 269.45L248.001 260.46L248 254H250V252H240Z" fill="#1C1C1C"/>
<path d="M268.063 268.758C268.351 269.028 269.737 270.18 271.933 270.18C274.273 270.18 275.947 268.65 275.947 266.778C275.947 264.582 274.165 263.592 272.077 262.746C270.583 262.134 269.791 261.504 269.791 260.478C269.791 259.812 270.313 258.858 271.825 258.858C272.869 258.858 273.553 259.308 274.255 259.758C274.507 259.92 274.741 259.812 274.885 259.578L275.335 258.894C275.515 258.624 275.371 258.372 275.227 258.282C275.047 258.156 273.697 257.22 271.897 257.22C269.035 257.22 267.955 259.146 267.955 260.55C267.955 262.638 269.395 263.592 271.231 264.366C273.013 265.104 273.949 265.788 273.949 266.868C273.949 267.786 273.157 268.542 271.915 268.542C270.529 268.542 269.881 268.002 269.035 267.3C268.837 267.138 268.567 267.21 268.423 267.444L267.955 268.182C267.757 268.488 267.901 268.614 268.063 268.758ZM277.442 265.86C277.442 268.362 279.368 270.198 281.69 270.198C283.13 270.198 284.246 269.496 284.93 268.47C285.074 268.254 284.984 268.056 284.786 267.876L284.228 267.426C284.048 267.282 283.85 267.282 283.67 267.462C283.22 267.876 282.788 268.488 281.708 268.488C280.322 268.488 279.242 267.336 279.242 265.842C279.242 264.366 280.34 263.214 281.762 263.214C282.428 263.214 283.094 263.628 283.472 264.042C283.616 264.186 283.778 264.348 284.012 264.132L284.66 263.538C284.84 263.376 284.894 263.142 284.732 262.944C283.958 261.99 283.004 261.504 281.708 261.504C279.404 261.504 277.442 263.412 277.442 265.86ZM286.823 269.604C286.823 269.82 287.003 270 287.219 270H288.227C288.425 270 288.623 269.82 288.623 269.604V262.08C288.623 261.882 288.425 261.684 288.227 261.684H287.219C287.003 261.684 286.823 261.882 286.823 262.08V269.604ZM287.723 259.902C288.407 259.902 288.947 259.362 288.947 258.696C288.947 258.012 288.407 257.472 287.723 257.472C287.057 257.472 286.535 258.012 286.535 258.696C286.535 259.362 287.057 259.902 287.723 259.902ZM291.328 266.292H295.216C295.414 266.292 295.558 266.148 295.558 265.968V265.194C295.558 264.996 295.414 264.852 295.216 264.852H291.328C291.13 264.852 290.986 264.996 290.986 265.194V265.968C290.986 266.148 291.13 266.292 291.328 266.292ZM298.293 269.658C298.293 269.838 298.437 270 298.635 270H299.805C299.985 270 300.147 269.838 300.147 269.658V264.924H304.953C305.133 264.924 305.295 264.762 305.295 264.582V263.592C305.295 263.412 305.133 263.25 304.953 263.25H300.147V259.092H305.835C306.033 259.092 306.177 258.93 306.177 258.75V257.742C306.177 257.562 306.033 257.4 305.835 257.4H298.635C298.437 257.4 298.293 257.562 298.293 257.742V269.658ZM307.935 269.604C307.935 269.82 308.115 270 308.331 270H309.339C309.537 270 309.735 269.82 309.735 269.604V262.08C309.735 261.882 309.537 261.684 309.339 261.684H308.331C308.115 261.684 307.935 261.882 307.935 262.08V269.604ZM308.835 259.902C309.519 259.902 310.059 259.362 310.059 258.696C310.059 258.012 309.519 257.472 308.835 257.472C308.169 257.472 307.647 258.012 307.647 258.696C307.647 259.362 308.169 259.902 308.835 259.902Z" fill="#1C1C1C"/>
</g>
<g filter="url(#filter11_d_1_141)">
<rect x="361" y="241" width="168" height="45" rx="22.5" fill="white" shape-rendering="crispEdges"/>
<path d="M403 253C397.48 253 393 257.48 393 263C393 268.52 397.48 273 403 273C408.52 273 413 268.52 413 263C413 257.48 408.52 253 403 253ZM403 271C398.59 271 395 267.41 395 263C395 258.59 398.59 255 403 255C407.41 255 411 258.59 411 263C411 267.41 407.41 271 403 271ZM402 267H404V269H402V267ZM403.61 257.04C401.55 256.74 399.73 258.01 399.18 259.83C399 260.41 399.44 261 400.05 261H400.25C400.66 261 400.99 260.71 401.13 260.33C401.45 259.44 402.4 258.83 403.43 259.05C404.38 259.25 405.08 260.18 405 261.15C404.9 262.49 403.38 262.78 402.55 264.03C402.55 264.04 402.54 264.04 402.54 264.05C402.53 264.07 402.52 264.08 402.51 264.1C402.42 264.25 402.33 264.42 402.26 264.6C402.25 264.63 402.23 264.65 402.22 264.68C402.21 264.7 402.21 264.72 402.2 264.75C402.08 265.09 402 265.5 402 266H404C404 265.58 404.11 265.23 404.28 264.93C404.3 264.9 404.31 264.87 404.33 264.84C404.41 264.7 404.51 264.57 404.61 264.45C404.62 264.44 404.63 264.42 404.64 264.41C404.74 264.29 404.85 264.18 404.97 264.07C405.93 263.16 407.23 262.42 406.96 260.51C406.72 258.77 405.35 257.3 403.61 257.04Z" fill="#1C1C1C"/>
<path d="M426.359 268.758C426.647 269.028 428.033 270.18 430.229 270.18C432.569 270.18 434.243 268.65 434.243 266.778C434.243 264.582 432.461 263.592 430.373 262.746C428.879 262.134 428.087 261.504 428.087 260.478C428.087 259.812 428.609 258.858 430.121 258.858C431.165 258.858 431.849 259.308 432.551 259.758C432.803 259.92 433.037 259.812 433.181 259.578L433.631 258.894C433.811 258.624 433.667 258.372 433.523 258.282C433.343 258.156 431.993 257.22 430.193 257.22C427.331 257.22 426.251 259.146 426.251 260.55C426.251 262.638 427.691 263.592 429.527 264.366C431.309 265.104 432.245 265.788 432.245 266.868C432.245 267.786 431.453 268.542 430.211 268.542C428.825 268.542 428.177 268.002 427.331 267.3C427.133 267.138 426.863 267.21 426.719 267.444L426.251 268.182C426.053 268.488 426.197 268.614 426.359 268.758ZM435.756 265.842C435.756 268.218 437.394 270.198 439.914 270.198C441.3 270.198 442.398 269.694 442.992 269.172C443.244 268.956 443.172 268.794 443.028 268.614L442.542 267.858C442.398 267.642 442.236 267.696 442.056 267.822C441.552 268.182 440.976 268.524 440.022 268.524C438.564 268.524 437.556 267.372 437.538 266.256H443.28C443.46 266.256 443.64 266.112 443.658 265.896C443.676 265.752 443.694 265.464 443.694 265.32C443.694 263.106 442.056 261.504 439.896 261.504C437.394 261.504 435.756 263.502 435.756 265.842ZM437.628 264.924C437.754 263.88 438.546 263.034 439.86 263.034C441.084 263.034 441.876 263.916 441.912 264.924H437.628ZM445.63 269.604C445.63 269.82 445.81 270 446.026 270H447.034C447.232 270 447.43 269.82 447.43 269.604V257.796C447.43 257.598 447.232 257.4 447.034 257.4H446.026C445.81 257.4 445.63 257.598 445.63 257.796V269.604ZM450.708 269.604C450.708 269.82 450.906 270 451.104 270H452.112C452.31 270 452.508 269.82 452.508 269.604V263.358H454.866C455.082 263.358 455.262 263.16 455.262 262.962V262.08C455.262 261.846 455.082 261.684 454.866 261.684H452.508V260.73C452.508 259.686 452.886 258.93 453.822 258.93C454.362 258.93 454.704 259.056 455.154 259.344C455.37 259.488 455.568 259.47 455.694 259.272L456.216 258.516C456.306 258.39 456.288 258.174 456.144 258.048C455.766 257.706 454.902 257.22 453.786 257.22C451.77 257.22 450.708 258.498 450.708 260.73V261.684H449.628C449.394 261.684 449.232 261.846 449.232 262.08V262.962C449.232 263.16 449.394 263.358 449.628 263.358H450.708V269.604ZM456.338 266.292H460.226C460.424 266.292 460.568 266.148 460.568 265.968V265.194C460.568 264.996 460.424 264.852 460.226 264.852H456.338C456.14 264.852 455.996 264.996 455.996 265.194V265.968C455.996 266.148 456.14 266.292 456.338 266.292ZM463.304 269.658C463.304 269.838 463.466 270 463.646 270H464.834C465.032 270 465.176 269.838 465.176 269.658V264.456H471.764V269.658C471.764 269.838 471.908 270 472.106 270H473.294C473.474 270 473.636 269.838 473.636 269.658V257.742C473.636 257.562 473.474 257.4 473.294 257.4H472.106C471.908 257.4 471.764 257.562 471.764 257.742V262.764H465.176V257.742C465.176 257.562 465.032 257.4 464.834 257.4H463.646C463.466 257.4 463.304 257.562 463.304 257.742V269.658ZM475.746 265.842C475.746 268.218 477.384 270.198 479.904 270.198C481.29 270.198 482.388 269.694 482.982 269.172C483.234 268.956 483.162 268.794 483.018 268.614L482.532 267.858C482.388 267.642 482.226 267.696 482.046 267.822C481.542 268.182 480.966 268.524 480.012 268.524C478.554 268.524 477.546 267.372 477.528 266.256H483.27C483.45 266.256 483.63 266.112 483.648 265.896C483.666 265.752 483.684 265.464 483.684 265.32C483.684 263.106 482.046 261.504 479.886 261.504C477.384 261.504 475.746 263.502 475.746 265.842ZM477.618 264.924C477.744 263.88 478.536 263.034 479.85 263.034C481.074 263.034 481.866 263.916 481.902 264.924H477.618ZM485.621 269.604C485.621 269.82 485.801 270 486.017 270H487.025C487.223 270 487.421 269.82 487.421 269.604V257.796C487.421 257.598 487.223 257.4 487.025 257.4H486.017C485.801 257.4 485.621 257.598 485.621 257.796V269.604ZM491.832 269.622C491.976 269.712 492.876 270.198 493.956 270.198C496.224 270.198 497.952 268.272 497.952 265.842C497.952 263.466 496.314 261.504 494.028 261.504C492.498 261.504 491.562 262.35 491.418 262.494L491.202 261.954C491.13 261.756 491.022 261.684 490.842 261.684H490.392C490.176 261.684 489.996 261.882 489.996 262.08V273.888C489.996 274.104 490.176 274.284 490.392 274.284H491.4C491.67 274.284 491.832 274.122 491.832 273.888V269.622ZM491.796 267.876V264.384C491.868 264.132 492.588 263.214 493.794 263.214C495.216 263.214 496.152 264.366 496.152 265.842C496.152 267.336 495.072 268.488 493.722 268.488C492.606 268.488 491.796 267.876 491.796 267.876Z" fill="#1C1C1C"/>
</g>
<g filter="url(#filter12_d_1_141)">
<rect x="16" y="316" width="150" height="45" rx="22.5" fill="white" shape-rendering="crispEdges"/>
<g clip-path="url(#clip1_1_141)">
<path d="M59.98 349.479C59.8407 349.299 59.7548 349.083 59.7319 348.857C59.7091 348.63 59.7504 348.401 59.851 348.197C60.115 347.684 60.2185 347.097 60.151 346.52C60.0957 346.108 59.9596 345.711 59.7505 345.351C59.5441 344.997 59.2681 344.688 58.939 344.442C57.8175 343.6 57.0305 342.387 56.7175 341.019C54.1555 344.378 55.138 346.284 56.365 347.964C56.5089 348.161 56.5846 348.4 56.5809 348.644C56.5771 348.888 56.4939 349.124 56.344 349.316C56.1912 349.511 55.9863 349.658 55.753 349.74C55.5224 349.821 55.2733 349.833 55.036 349.775C53.3785 349.37 51.8185 348.599 50.761 347.37C50.1616 346.688 49.7 345.896 49.402 345.038C49.1006 344.173 48.9667 343.258 49.0075 342.342C49.0075 342.342 48.808 338.648 53.263 335.028C53.263 335.028 58.528 330.561 56.701 327.258C56.6337 327.096 56.6137 326.918 56.6435 326.744C56.6732 326.571 56.7514 326.41 56.869 326.279C56.9833 326.151 57.1343 326.061 57.3015 326.021C57.4687 325.982 57.6439 325.995 57.8035 326.058L58.0225 326.145C60.0056 327.399 61.5556 329.232 62.4625 331.395C63.3325 333.515 63.3265 335.985 62.7385 338.186C63.226 337.748 63.6325 337.224 63.94 336.636L63.9835 336.54C64.2805 335.825 65.215 336.053 65.566 336.521C65.695 336.726 69.004 341.535 67.2265 345.593C66.5766 346.822 65.6274 347.868 64.4665 348.633C63.4924 349.28 62.404 349.735 61.2595 349.973C61.023 350.023 60.777 350.003 60.5515 349.916C60.3239 349.828 60.1259 349.677 59.98 349.481V349.479ZM57.331 337.838C57.471 337.765 57.6333 337.747 57.786 337.788C57.9386 337.828 58.0706 337.924 58.156 338.057C58.216 338.145 58.255 338.246 58.2685 338.354L58.336 338.877C58.366 339.644 58.357 340.445 58.6555 341.181C58.9645 341.937 59.4445 342.606 60.0535 343.128C60.8381 343.645 61.4454 344.389 61.7935 345.261C62.1235 346.107 62.1685 347.046 61.9195 347.921C62.6813 347.681 63.3894 347.295 64.0045 346.785L64.159 346.659C64.663 346.244 65.0785 345.725 65.3785 345.134C65.68 344.544 65.8615 343.896 65.9095 343.23C66.007 341.693 65.4835 340.149 64.669 338.772C64.297 339.312 63.784 339.731 63.1915 339.978C62.821 340.136 62.428 340.233 62.0275 340.263C61.7981 340.278 61.5694 340.226 61.369 340.113C61.1655 339.998 60.9987 339.827 60.8875 339.621C60.7955 339.455 60.7429 339.27 60.7338 339.081C60.7247 338.891 60.7593 338.702 60.835 338.528C61.453 337.07 61.645 335.453 61.3825 333.882C61.0718 332.086 60.2112 330.43 58.9195 329.142C58.6855 332.45 55.294 335.529 54.598 336.192C54.4901 336.294 54.378 336.391 54.262 336.483C50.623 339.431 50.872 342.116 50.872 342.234C50.7997 343.301 51.0389 344.366 51.5605 345.299C52.108 346.266 52.8955 347.064 53.8405 347.609C52.75 345.212 52.75 342.335 56.7745 338.21L57.3325 337.835L57.331 337.838Z" fill="#1C1C1C"/>
</g>
<path d="M84.0057 344.658C84.0057 344.838 84.1677 345 84.3477 345H85.5357C85.7157 345 85.8777 344.838 85.8777 344.658V334.092H88.8117C89.0097 334.092 89.1537 333.93 89.1537 333.75V332.742C89.1537 332.562 89.0097 332.4 88.8117 332.4H81.0717C80.8737 332.4 80.7297 332.562 80.7297 332.742V333.75C80.7297 333.93 80.8737 334.092 81.0717 334.092H84.0057V344.658ZM90.7502 344.604C90.7502 344.82 90.9302 345 91.1462 345H92.1362C92.3882 345 92.5502 344.838 92.5502 344.604V339.42C92.7302 339.06 93.4502 338.214 94.7282 338.214C95.8082 338.214 96.3842 339.024 96.3842 340.392V344.604C96.3842 344.82 96.5642 345 96.7802 345H97.7882C97.9862 345 98.1842 344.82 98.1842 344.604V340.428C98.1842 338.16 97.3202 336.504 94.9622 336.504C93.6482 336.504 92.7482 337.224 92.5502 337.368V332.796C92.5502 332.598 92.3522 332.4 92.1542 332.4H91.1462C90.9302 332.4 90.7502 332.598 90.7502 332.796V344.604ZM100.612 344.604C100.612 344.82 100.792 345 101.008 345H101.836C102.178 345 102.412 344.964 102.412 344.604V339.33C102.484 339.186 103.15 338.214 104.374 338.214C104.626 338.214 105.004 338.304 105.13 338.376C105.31 338.466 105.526 338.412 105.634 338.178L106.066 337.278C106.336 336.72 105.346 336.504 104.554 336.504C103.042 336.504 102.178 337.512 102.034 337.728L101.8 336.972C101.764 336.81 101.602 336.684 101.44 336.684H101.008C100.792 336.684 100.612 336.882 100.612 337.08V344.604ZM107.555 344.604C107.555 344.82 107.735 345 107.951 345H108.959C109.157 345 109.355 344.82 109.355 344.604V337.08C109.355 336.882 109.157 336.684 108.959 336.684H107.951C107.735 336.684 107.555 336.882 107.555 337.08V344.604ZM108.455 334.902C109.139 334.902 109.679 334.362 109.679 333.696C109.679 333.012 109.139 332.472 108.455 332.472C107.789 332.472 107.267 333.012 107.267 333.696C107.267 334.362 107.789 334.902 108.455 334.902ZM111.933 344.604C111.933 344.82 112.113 345 112.329 345H113.337C113.535 345 113.733 344.82 113.733 344.604V332.796C113.733 332.598 113.535 332.4 113.337 332.4H112.329C112.113 332.4 111.933 332.598 111.933 332.796V344.604ZM116.363 344.604C116.363 344.82 116.543 345 116.759 345H117.767C117.965 345 118.163 344.82 118.163 344.604V332.796C118.163 332.598 117.965 332.4 117.767 332.4H116.759C116.543 332.4 116.363 332.598 116.363 332.796V344.604ZM120.235 340.842C120.235 343.218 121.873 345.198 124.393 345.198C125.779 345.198 126.877 344.694 127.471 344.172C127.723 343.956 127.651 343.794 127.507 343.614L127.021 342.858C126.877 342.642 126.715 342.696 126.535 342.822C126.031 343.182 125.455 343.524 124.501 343.524C123.043 343.524 122.035 342.372 122.017 341.256H127.759C127.939 341.256 128.119 341.112 128.137 340.896C128.155 340.752 128.173 340.464 128.173 340.32C128.173 338.106 126.535 336.504 124.375 336.504C121.873 336.504 120.235 338.502 120.235 340.842ZM122.107 339.924C122.233 338.88 123.025 338.034 124.339 338.034C125.563 338.034 126.355 338.916 126.391 339.924H122.107ZM130.055 344.604C130.055 344.82 130.235 345 130.451 345H131.279C131.621 345 131.855 344.964 131.855 344.604V339.33C131.927 339.186 132.593 338.214 133.817 338.214C134.069 338.214 134.447 338.304 134.573 338.376C134.753 338.466 134.969 338.412 135.077 338.178L135.509 337.278C135.779 336.72 134.789 336.504 133.997 336.504C132.485 336.504 131.621 337.512 131.477 337.728L131.243 336.972C131.207 336.81 131.045 336.684 130.883 336.684H130.451C130.235 336.684 130.055 336.882 130.055 337.08V344.604Z" fill="#1C1C1C"/>
</g>
<g filter="url(#filter13_d_1_141)">
<rect x="186" y="316" width="189" height="45" rx="22.5" fill="white" shape-rendering="crispEdges"/>
<path fill-rule="evenodd" clip-rule="evenodd" d="M232.75 333C232.22 333 231.711 332.789 231.336 332.414C230.961 332.039 230.75 331.53 230.75 331C230.75 330.47 230.961 329.961 231.336 329.586C231.711 329.211 232.22 329 232.75 329C233.28 329 233.789 329.211 234.164 329.586C234.539 329.961 234.75 330.47 234.75 331C234.75 331.53 234.539 332.039 234.164 332.414C233.789 332.789 233.28 333 232.75 333ZM232.75 332C232.485 332 232.23 331.895 232.043 331.707C231.855 331.52 231.75 331.265 231.75 331C231.75 330.735 231.855 330.48 232.043 330.293C232.23 330.105 232.485 330 232.75 330C233.015 330 233.27 330.105 233.457 330.293C233.645 330.48 233.75 330.735 233.75 331C233.75 331.265 233.645 331.52 233.457 331.707C233.27 331.895 233.015 332 232.75 332ZM235.315 334.42C234.82 334.122 234.273 334 233.728 334H231.773C231.228 334 230.681 334.122 230.186 334.42C229.691 334.718 229.336 335.137 229.09 335.592C228.625 336.451 228.5 337.524 228.5 338.572V338.616C228.5 338.631 228.5 338.646 228.502 338.66L228.506 338.705L228.507 338.711L228.507 338.733L228.509 338.811C228.509 338.879 228.509 338.974 228.508 339.103L228.506 339.289V339.291C228.503 339.495 228.5 339.738 228.5 340C228.5 340.218 228.548 340.434 228.639 340.632C228.731 340.829 228.865 341.005 229.032 341.146C229.198 341.286 229.394 341.389 229.604 341.447C229.814 341.504 230.035 341.515 230.25 341.479V345.75C230.249 346.069 230.37 346.377 230.589 346.609C230.807 346.842 231.107 346.982 231.425 347.001C231.744 347.02 232.058 346.917 232.303 346.712C232.547 346.507 232.704 346.216 232.742 345.899L232.751 345.825L232.759 345.899C232.796 346.216 232.953 346.507 233.198 346.712C233.443 346.917 233.756 347.02 234.075 347.001C234.394 346.982 234.693 346.842 234.912 346.609C235.13 346.377 235.251 346.069 235.251 345.75V341.479C235.466 341.515 235.686 341.504 235.896 341.447C236.107 341.389 236.302 341.286 236.468 341.145C236.635 341.005 236.769 340.829 236.861 340.631C236.952 340.434 237 340.218 237 340C237 339.737 236.997 339.494 236.995 339.29V339.29L236.992 339.103C236.991 338.98 236.991 338.856 236.993 338.733L236.994 338.711V338.705L236.998 338.66C236.999 338.645 237 338.63 237 338.616V338.572C237 337.524 236.875 336.451 236.41 335.592C236.165 335.137 235.81 334.718 235.315 334.42ZM230 340.5C230.088 340.5 230.174 340.477 230.25 340.434V337.5H231.25V345.75C231.249 345.814 231.273 345.876 231.317 345.923C231.361 345.97 231.421 345.998 231.485 346.002C231.549 346.006 231.612 345.985 231.661 345.944C231.71 345.902 231.742 345.844 231.749 345.78L232.254 341.568C232.268 341.447 232.326 341.335 232.418 341.254C232.509 341.172 232.628 341.128 232.75 341.128C232.872 341.128 232.991 341.172 233.082 341.254C233.174 341.335 233.232 341.447 233.247 341.568L233.752 345.78C233.759 345.844 233.79 345.902 233.839 345.944C233.888 345.985 233.951 346.006 234.016 346.002C234.08 345.998 234.14 345.97 234.183 345.923C234.227 345.876 234.251 345.814 234.251 345.75V337.5H235.251V340.434C235.327 340.477 235.413 340.501 235.501 340.5C235.588 340.5 235.675 340.477 235.751 340.433C235.827 340.389 235.89 340.326 235.934 340.25C235.978 340.174 236.001 340.088 236.001 340C236.001 339.744 235.998 339.505 235.995 339.301L235.993 339.113C235.988 338.948 235.99 338.782 235.999 338.616L236.001 338.594V338.572C236.001 337.574 235.876 336.704 235.532 336.068C235.355 335.741 235.115 335.467 234.8 335.278C234.484 335.088 234.122 335 233.728 335H231.773C231.379 335 231.017 335.088 230.7 335.278C230.385 335.468 230.146 335.741 229.969 336.068C229.625 336.704 229.5 337.574 229.5 338.571V338.594L229.502 338.616C229.51 338.701 229.511 338.862 229.508 339.113L229.505 339.299V339.302C229.503 339.506 229.5 339.743 229.5 340C229.5 340.133 229.553 340.26 229.647 340.354C229.741 340.447 229.868 340.5 230 340.5H230ZM221 331C221 331.53 221.211 332.039 221.586 332.414C221.961 332.789 222.47 333 223 333C223.53 333 224.039 332.789 224.414 332.414C224.789 332.039 225 331.53 225 331C225 330.47 224.789 329.961 224.414 329.586C224.039 329.211 223.53 329 223 329C222.47 329 221.961 329.211 221.586 329.586C221.211 329.961 221 330.47 221 331ZM222 331C222 331.265 222.105 331.52 222.293 331.707C222.48 331.895 222.735 332 223 332C223.265 332 223.52 331.895 223.707 331.707C223.895 331.52 224 331.265 224 331C224 330.735 223.895 330.48 223.707 330.293C223.52 330.105 223.265 330 223 330C222.735 330 222.48 330.105 222.293 330.293C222.105 330.48 222 330.735 222 331ZM221.277 334.222C221.583 334.072 221.92 333.996 222.261 334H224.24C224.455 334 224.83 334.024 225.223 334.222C225.888 334.557 226.268 335.106 226.494 335.59C226.71 336.054 226.834 336.567 226.926 336.994C227.014 337.4 227.016 337.41 227.066 337.667C227.113 337.911 227.207 338.391 227.471 339.705C227.516 339.93 227.509 340.163 227.45 340.385C227.391 340.607 227.282 340.812 227.131 340.986C226.981 341.159 226.792 341.295 226.58 341.384C226.368 341.472 226.139 341.511 225.91 341.498L226.18 343.048C226.254 343.478 226.037 343.946 225.575 344.111C224.827 344.371 224.042 344.502 223.251 344.5C222.203 344.5 221.38 344.273 220.926 344.111C220.463 343.946 220.246 343.477 220.321 343.048L220.591 341.498C220.362 341.512 220.133 341.472 219.921 341.384C219.709 341.295 219.521 341.158 219.37 340.985C219.219 340.812 219.11 340.606 219.051 340.384C218.992 340.162 218.985 339.93 219.029 339.705C219.293 338.391 219.387 337.911 219.434 337.666C219.484 337.41 219.486 337.4 219.574 336.994C219.666 336.567 219.791 336.054 220.006 335.59C220.232 335.106 220.611 334.557 221.277 334.222ZM222.501 335H222.261C222.118 335 221.921 335.017 221.727 335.115C221.33 335.315 221.082 335.65 220.913 336.012C220.748 336.367 220.642 336.785 220.551 337.205C220.465 337.604 220.464 337.61 220.417 337.851L220.416 337.857C220.368 338.105 220.274 338.586 220.01 339.902C219.991 339.997 220 340.095 220.036 340.185C220.071 340.275 220.132 340.352 220.211 340.408C220.29 340.464 220.383 340.496 220.48 340.5C220.576 340.504 220.672 340.48 220.755 340.431L221.348 337.168L222.331 337.347L222.019 339.068L222.031 339.054L221.312 343.187C221.937 343.396 222.591 343.502 223.25 343.5C224.117 343.5 224.801 343.32 225.188 343.187L224.469 339.057L224.481 339.07L224.168 337.347L225.153 337.168L225.746 340.431C225.829 340.48 225.924 340.504 226.021 340.5C226.117 340.495 226.211 340.464 226.289 340.408C226.368 340.352 226.429 340.274 226.465 340.184C226.5 340.094 226.509 339.996 226.49 339.901C226.352 339.22 226.217 338.539 226.084 337.857L226.083 337.851C226.041 337.636 225.996 337.42 225.949 337.205C225.858 336.785 225.752 336.367 225.587 336.012C225.418 335.65 225.169 335.314 224.773 335.115C224.606 335.035 224.424 334.996 224.239 335H222.501Z" fill="#1C1C1C"/>
<path d="M224.857 346.956C225.036 346.931 225.199 346.842 225.317 346.705C225.435 346.569 225.5 346.395 225.5 346.214V345C224.89 345.087 224.275 345.142 223.659 345.167L224.031 346.426C224.082 346.599 224.194 346.748 224.345 346.846C224.497 346.943 224.679 346.982 224.857 346.956ZM222.867 345.177L222.465 346.442C222.411 346.613 222.297 346.759 222.145 346.853C221.993 346.947 221.812 346.984 221.635 346.957C221.458 346.929 221.296 346.839 221.18 346.703C221.063 346.567 221 346.393 221 346.214V345.046C221.655 345.124 222.264 345.168 222.867 345.177Z" fill="#1C1C1C"/>
<path d="M255.295 337.116L252.055 332.562C252.001 332.49 251.911 332.4 251.767 332.4H250.435C250.147 332.4 250.003 332.688 250.147 332.922L254.359 338.934V344.658C254.359 344.838 254.503 345 254.701 345H255.889C256.069 345 256.231 344.838 256.231 344.658V338.916L260.497 332.922C260.641 332.688 260.497 332.4 260.209 332.4H258.859C258.733 332.4 258.625 332.49 258.571 332.562L255.331 337.116H255.295ZM259.373 340.824C259.373 343.2 261.281 345.198 263.621 345.198C265.943 345.198 267.851 343.2 267.851 340.824C267.851 338.484 265.943 336.504 263.621 336.504C261.281 336.504 259.373 338.484 259.373 340.824ZM261.137 340.824C261.137 339.33 262.217 338.214 263.621 338.214C265.007 338.214 266.087 339.33 266.087 340.824C266.087 342.354 265.007 343.488 263.621 343.488C262.217 343.488 261.137 342.354 261.137 340.824ZM269.754 341.382C269.754 343.56 270.366 345.198 272.85 345.198C274.542 345.198 275.298 344.244 275.478 344.064L275.694 344.658C275.766 344.856 275.856 345 276.072 345H276.504C276.72 345 276.918 344.82 276.918 344.604V337.08C276.918 336.882 276.72 336.684 276.504 336.684H275.586C275.28 336.684 275.118 336.738 275.118 337.08V342.12C275.046 342.498 274.38 343.488 273.174 343.488C272.112 343.488 271.554 342.876 271.554 341.508V337.08C271.554 336.882 271.374 336.684 271.158 336.684H270.15C269.952 336.684 269.754 336.882 269.754 337.08V341.382ZM279.442 344.604C279.442 344.82 279.622 345 279.838 345H280.756C281.098 345 281.242 344.874 281.242 344.604V339.42C281.368 339.132 282.124 338.214 283.438 338.214C284.518 338.214 285.076 339.006 285.076 340.356V344.604C285.076 344.82 285.256 345 285.472 345H286.48C286.678 345 286.876 344.82 286.876 344.604V340.428C286.876 338.268 286.192 336.504 283.654 336.504C281.998 336.504 281.044 337.44 280.864 337.656L280.612 336.936C280.576 336.774 280.45 336.684 280.27 336.684H279.838C279.622 336.684 279.442 336.882 279.442 337.08V344.604ZM290.599 340.842C290.599 339.438 291.535 338.214 292.957 338.214C294.073 338.214 294.793 339.078 294.955 339.384V342.822C294.955 342.822 294.127 343.488 293.029 343.488C291.679 343.488 290.599 342.264 290.599 340.842ZM296.755 337.08C296.755 336.882 296.575 336.684 296.359 336.684H295.873C295.675 336.684 295.621 336.81 295.567 336.972L295.351 337.494C295.207 337.35 294.271 336.504 292.723 336.504C290.437 336.504 288.799 338.466 288.799 340.842C288.799 343.272 290.545 345.198 292.813 345.198C293.893 345.198 294.793 344.694 294.937 344.604V345.054C294.937 346.746 293.965 347.286 292.867 347.286C291.913 347.286 291.211 346.746 290.923 346.512C290.707 346.35 290.473 346.422 290.365 346.638L289.933 347.43C289.861 347.556 289.879 347.808 290.023 347.898C290.383 348.258 291.517 348.942 292.903 348.942C295.081 348.942 296.755 347.646 296.755 345.054V337.08ZM302.73 345H303.864C304.08 345 304.224 344.856 304.278 344.73L305.376 342.264H311.262L312.378 344.73C312.45 344.892 312.576 345 312.792 345H313.926C314.196 345 314.34 344.766 314.232 344.532L308.742 332.418C308.688 332.31 308.526 332.22 308.436 332.22H308.256C308.166 332.22 308.004 332.31 307.95 332.418L302.424 344.532C302.316 344.766 302.46 345 302.73 345ZM306.078 340.716L308.274 335.784H308.364L310.578 340.716H306.078ZM314.902 340.842C314.902 343.218 316.504 345.198 318.7 345.198C320.356 345.198 321.436 344.028 321.436 344.028L321.616 344.64C321.67 344.856 321.796 345 321.994 345H322.426C322.642 345 322.822 344.82 322.822 344.604V332.796C322.822 332.598 322.642 332.4 322.426 332.4H321.4C321.202 332.4 321.004 332.598 321.004 332.796V336.936C320.824 336.882 319.978 336.504 318.916 336.504C316.612 336.504 314.902 338.412 314.902 340.842ZM316.702 340.842C316.702 339.42 317.746 338.214 319.114 338.214C320.194 338.214 321.022 338.7 321.022 338.7V342.264C320.932 342.498 320.23 343.488 318.952 343.488C317.62 343.488 316.702 342.246 316.702 340.842ZM325.248 341.382C325.248 343.56 325.86 345.198 328.344 345.198C330.036 345.198 330.792 344.244 330.972 344.064L331.188 344.658C331.26 344.856 331.35 345 331.566 345H331.998C332.214 345 332.412 344.82 332.412 344.604V337.08C332.412 336.882 332.214 336.684 331.998 336.684H331.08C330.774 336.684 330.612 336.738 330.612 337.08V342.12C330.54 342.498 329.874 343.488 328.668 343.488C327.606 343.488 327.048 342.876 327.048 341.508V337.08C327.048 336.882 326.868 336.684 326.652 336.684H325.644C325.446 336.684 325.248 336.882 325.248 337.08V341.382ZM334.99 344.604C334.99 344.82 335.17 345 335.386 345H336.394C336.592 345 336.79 344.82 336.79 344.604V332.796C336.79 332.598 336.592 332.4 336.394 332.4H335.386C335.17 332.4 334.99 332.598 334.99 332.796V344.604ZM339.923 342.714C339.923 344.19 340.373 345.198 342.029 345.198C343.019 345.198 343.991 344.82 344.333 344.604C344.531 344.478 344.621 344.334 344.531 344.118L344.207 343.272C344.135 343.092 343.973 342.948 343.721 343.092C343.415 343.272 342.911 343.488 342.389 343.488C341.993 343.488 341.723 343.344 341.723 342.642V338.214H343.919C344.135 338.214 344.315 338.016 344.315 337.818V337.08C344.315 336.846 344.135 336.684 343.919 336.684H341.723V334.362C341.723 334.146 341.561 333.966 341.345 333.966H340.319C340.103 333.966 339.923 334.146 339.923 334.362V336.684H338.969C338.735 336.684 338.573 336.846 338.573 337.08V337.818C338.573 338.016 338.735 338.214 338.969 338.214H339.923V342.714Z" fill="#1C1C1C"/>
</g>
<g filter="url(#filter14_d_1_141)">
<rect x="395" y="316" width="143" height="45" rx="22.5" fill="#E75C62" shape-rendering="crispEdges"/>
<path d="M430.583 344.982C430.637 345.09 430.763 345.18 430.889 345.18H431.069C431.213 345.18 431.321 345.09 431.375 344.982L436.901 332.868C437.009 332.634 436.865 332.4 436.595 332.4H435.317C435.155 332.4 435.047 332.508 435.011 332.598L431.033 341.508H430.943L426.983 332.598C426.947 332.508 426.821 332.4 426.677 332.4H425.399C425.129 332.4 424.985 332.634 425.093 332.868L430.583 344.982ZM438.234 344.604C438.234 344.82 438.414 345 438.63 345H439.638C439.836 345 440.034 344.82 440.034 344.604V337.08C440.034 336.882 439.836 336.684 439.638 336.684H438.63C438.414 336.684 438.234 336.882 438.234 337.08V344.604ZM439.134 334.902C439.818 334.902 440.358 334.362 440.358 333.696C440.358 333.012 439.818 332.472 439.134 332.472C438.468 332.472 437.946 333.012 437.946 333.696C437.946 334.362 438.468 334.902 439.134 334.902ZM442.054 340.842C442.054 343.218 443.692 345.198 446.212 345.198C447.598 345.198 448.696 344.694 449.29 344.172C449.542 343.956 449.47 343.794 449.326 343.614L448.84 342.858C448.696 342.642 448.534 342.696 448.354 342.822C447.85 343.182 447.274 343.524 446.32 343.524C444.862 343.524 443.854 342.372 443.836 341.256H449.578C449.758 341.256 449.938 341.112 449.956 340.896C449.974 340.752 449.992 340.464 449.992 340.32C449.992 338.106 448.354 336.504 446.194 336.504C443.692 336.504 442.054 338.502 442.054 340.842ZM443.926 339.924C444.052 338.88 444.844 338.034 446.158 338.034C447.382 338.034 448.174 338.916 448.21 339.924H443.926ZM453.55 344.982C453.586 345.108 453.712 345.198 453.892 345.198H454C454.18 345.198 454.288 345.108 454.324 345L456.88 339.348H456.916L459.454 345C459.508 345.108 459.634 345.198 459.814 345.198H459.886C460.066 345.198 460.228 345.108 460.264 344.982L462.64 337.152C462.766 336.9 462.604 336.684 462.316 336.684H461.56C461.344 336.684 461.038 336.684 460.93 336.936L459.598 341.724H459.562L457.33 336.702C457.294 336.594 457.168 336.504 456.97 336.504H456.844C456.682 336.504 456.556 336.594 456.502 336.702L454.252 341.706H454.216L452.848 336.936C452.812 336.774 452.632 336.684 452.488 336.684H451.408C451.12 336.684 450.994 336.9 451.12 337.152L453.55 344.982ZM468.19 342.426C468.19 344.154 469.306 345.198 470.872 345.198C472.15 345.198 472.978 344.586 473.428 344.154L473.626 344.712C473.716 344.928 473.806 345 473.968 345H474.562C474.76 345 474.958 344.82 474.958 344.604V340.176C474.958 338.106 474.706 336.504 472.042 336.504C470.512 336.504 469.324 336.918 469.18 336.972C468.982 337.044 468.856 337.17 468.91 337.458L469.072 338.142C469.126 338.376 469.288 338.538 469.54 338.484C469.972 338.358 470.908 338.088 471.862 338.088C472.906 338.088 473.23 338.682 473.194 339.996C473.194 339.996 472.384 339.744 471.52 339.744C469.378 339.744 468.19 340.896 468.19 342.426ZM469.954 342.408C469.954 341.544 470.692 341.04 471.664 341.04C472.42 341.04 473.068 341.256 473.176 341.328V342.714C472.924 343.128 472.078 343.722 471.25 343.722C470.386 343.722 469.954 343.146 469.954 342.408ZM477.452 344.604C477.452 344.82 477.632 345 477.848 345H478.856C479.054 345 479.252 344.82 479.252 344.604V332.796C479.252 332.598 479.054 332.4 478.856 332.4H477.848C477.632 332.4 477.452 332.598 477.452 332.796V344.604ZM481.881 344.604C481.881 344.82 482.061 345 482.277 345H483.285C483.483 345 483.681 344.82 483.681 344.604V332.796C483.681 332.598 483.483 332.4 483.285 332.4H482.277C482.061 332.4 481.881 332.598 481.881 332.796V344.604Z" fill="white"/>
<path d="M508.172 338L503.222 333.05L504.636 331.636L511 338L504.636 344.364L503.222 342.95L508.172 338Z" fill="white"/>
</g>
<defs>
<filter id="filter0_d_1_141" x="0" y="0" width="186" height="85" filterUnits="userSpaceOnUse" color-interpolation-filters="sRGB">
<feFlood flood-opacity="0" result="BackgroundImageFix"/>
<feColorMatrix in="SourceAlpha" type="matrix" values="0 0 0 0 0 0 0 0 0 0 0 0 0 0 0 0 0 0 127 0" result="hardAlpha"/>
<feOffset dx="4" dy="4"/>
<feGaussianBlur stdDeviation="10"/>
<feComposite in2="hardAlpha" operator="out"/>
<feColorMatrix type="matrix" values="0 0 0 0 0.0509804 0 0 0 0 0.152941 0 0 0 0 0.419608 0 0 0 0.06 0"/>
<feBlend mode="normal" in2="BackgroundImageFix" result="effect1_dropShadow_1_141"/>
<feBlend mode="normal" in="SourceGraphic" in2="effect1_dropShadow_1_141" result="shape"/>
</filter>
<filter id="filter1_d_1_141" x="166" y="0" width="196" height="85" filterUnits="userSpaceOnUse" color-interpolation-filters="sRGB">
<feFlood flood-opacity="0" result="BackgroundImageFix"/>
<feColorMatrix in="SourceAlpha" type="matrix" values="0 0 0 0 0 0 0 0 0 0 0 0 0 0 0 0 0 0 127 0" result="hardAlpha"/>
<feOffset dx="4" dy="4"/>
<feGaussianBlur stdDeviation="10"/>
<feComposite in2="hardAlpha" operator="out"/>
<feColorMatrix type="matrix" values="0 0 0 0 0.0509804 0 0 0 0 0.152941 0 0 0 0 0.419608 0 0 0 0.06 0"/>
<feBlend mode="normal" in2="BackgroundImageFix" result="effect1_dropShadow_1_141"/>
<feBlend mode="normal" in="SourceGraphic" in2="effect1_dropShadow_1_141" result="shape"/>
</filter>
<filter id="filter2_d_1_141" x="342" y="0" width="231" height="85" filterUnits="userSpaceOnUse" color-interpolation-filters="sRGB">
<feFlood flood-opacity="0" result="BackgroundImageFix"/>
<feColorMatrix in="SourceAlpha" type="matrix" values="0 0 0 0 0 0 0 0 0 0 0 0 0 0 0 0 0 0 127 0" result="hardAlpha"/>
<feOffset dx="4" dy="4"/>
<feGaussianBlur stdDeviation="10"/>
<feComposite in2="hardAlpha" operator="out"/>
<feColorMatrix type="matrix" values="0 0 0 0 0.0509804 0 0 0 0 0.152941 0 0 0 0 0.419608 0 0 0 0.06 0"/>
<feBlend mode="normal" in2="BackgroundImageFix" result="effect1_dropShadow_1_141"/>
<feBlend mode="normal" in="SourceGraphic" in2="effect1_dropShadow_1_141" result="shape"/>
</filter>
<filter id="filter3_d_1_141" x="0" y="75" width="200" height="85" filterUnits="userSpaceOnUse" color-interpolation-filters="sRGB">
<feFlood flood-opacity="0" result="BackgroundImageFix"/>
<feColorMatrix in="SourceAlpha" type="matrix" values="0 0 0 0 0 0 0 0 0 0 0 0 0 0 0 0 0 0 127 0" result="hardAlpha"/>
<feOffset dx="4" dy="4"/>
<feGaussianBlur stdDeviation="10"/>
<feComposite in2="hardAlpha" operator="out"/>
<feColorMatrix type="matrix" values="0 0 0 0 0.0509804 0 0 0 0 0.152941 0 0 0 0 0.419608 0 0 0 0.06 0"/>
<feBlend mode="normal" in2="BackgroundImageFix" result="effect1_dropShadow_1_141"/>
<feBlend mode="normal" in="SourceGraphic" in2="effect1_dropShadow_1_141" result="shape"/>
</filter>
<filter id="filter4_d_1_141" x="180" y="75" width="182" height="85" filterUnits="userSpaceOnUse" color-interpolation-filters="sRGB">
<feFlood flood-opacity="0" result="BackgroundImageFix"/>
<feColorMatrix in="SourceAlpha" type="matrix" values="0 0 0 0 0 0 0 0 0 0 0 0 0 0 0 0 0 0 127 0" result="hardAlpha"/>
<feOffset dx="4" dy="4"/>
<feGaussianBlur stdDeviation="10"/>
<feComposite in2="hardAlpha" operator="out"/>
<feColorMatrix type="matrix" values="0 0 0 0 0.0509804 0 0 0 0 0.152941 0 0 0 0 0.419608 0 0 0 0.06 0"/>
<feBlend mode="normal" in2="BackgroundImageFix" result="effect1_dropShadow_1_141"/>
<feBlend mode="normal" in="SourceGraphic" in2="effect1_dropShadow_1_141" result="shape"/>
</filter>
<filter id="filter5_d_1_141" x="342" y="75" width="187" height="85" filterUnits="userSpaceOnUse" color-interpolation-filters="sRGB">
<feFlood flood-opacity="0" result="BackgroundImageFix"/>
<feColorMatrix in="SourceAlpha" type="matrix" values="0 0 0 0 0 0 0 0 0 0 0 0 0 0 0 0 0 0 127 0" result="hardAlpha"/>
<feOffset dx="4" dy="4"/>
<feGaussianBlur stdDeviation="10"/>
<feComposite in2="hardAlpha" operator="out"/>
<feColorMatrix type="matrix" values="0 0 0 0 0.0509804 0 0 0 0 0.152941 0 0 0 0 0.419608 0 0 0 0.06 0"/>
<feBlend mode="normal" in2="BackgroundImageFix" result="effect1_dropShadow_1_141"/>
<feBlend mode="normal" in="SourceGraphic" in2="effect1_dropShadow_1_141" result="shape"/>
</filter>
<filter id="filter6_d_1_141" x="0" y="150" width="213" height="85" filterUnits="userSpaceOnUse" color-interpolation-filters="sRGB">
<feFlood flood-opacity="0" result="BackgroundImageFix"/>
<feColorMatrix in="SourceAlpha" type="matrix" values="0 0 0 0 0 0 0 0 0 0 0 0 0 0 0 0 0 0 127 0" result="hardAlpha"/>
<feOffset dx="4" dy="4"/>
<feGaussianBlur stdDeviation="10"/>
<feComposite in2="hardAlpha" operator="out"/>
<feColorMatrix type="matrix" values="0 0 0 0 0.0509804 0 0 0 0 0.152941 0 0 0 0 0.419608 0 0 0 0.06 0"/>
<feBlend mode="normal" in2="BackgroundImageFix" result="effect1_dropShadow_1_141"/>
<feBlend mode="normal" in="SourceGraphic" in2="effect1_dropShadow_1_141" result="shape"/>
</filter>
<filter id="filter7_d_1_141" x="193" y="150" width="188" height="85" filterUnits="userSpaceOnUse" color-interpolation-filters="sRGB">
<feFlood flood-opacity="0" result="BackgroundImageFix"/>
<feColorMatrix in="SourceAlpha" type="matrix" values="0 0 0 0 0 0 0 0 0 0 0 0 0 0 0 0 0 0 127 0" result="hardAlpha"/>
<feOffset dx="4" dy="4"/>
<feGaussianBlur stdDeviation="10"/>
<feComposite in2="hardAlpha" operator="out"/>
<feColorMatrix type="matrix" values="0 0 0 0 0.0509804 0 0 0 0 0.152941 0 0 0 0 0.419608 0 0 0 0.06 0"/>
<feBlend mode="normal" in2="BackgroundImageFix" result="effect1_dropShadow_1_141"/>
<feBlend mode="normal" in="SourceGraphic" in2="effect1_dropShadow_1_141" result="shape"/>
</filter>
<filter id="filter8_d_1_141" x="361" y="150" width="198" height="85" filterUnits="userSpaceOnUse" color-interpolation-filters="sRGB">
<feFlood flood-opacity="0" result="BackgroundImageFix"/>
<feColorMatrix in="SourceAlpha" type="matrix" values="0 0 0 0 0 0 0 0 0 0 0 0 0 0 0 0 0 0 127 0" result="hardAlpha"/>
<feOffset dx="4" dy="4"/>
<feGaussianBlur stdDeviation="10"/>
<feComposite in2="hardAlpha" operator="out"/>
<feColorMatrix type="matrix" values="0 0 0 0 0.0509804 0 0 0 0 0.152941 0 0 0 0 0.419608 0 0 0 0.06 0"/>
<feBlend mode="normal" in2="BackgroundImageFix" result="effect1_dropShadow_1_141"/>
<feBlend mode="normal" in="SourceGraphic" in2="effect1_dropShadow_1_141" result="shape"/>
</filter>
<filter id="filter9_d_1_141" x="0" y="225" width="207" height="85" filterUnits="userSpaceOnUse" color-interpolation-filters="sRGB">
<feFlood flood-opacity="0" result="BackgroundImageFix"/>
<feColorMatrix in="SourceAlpha" type="matrix" values="0 0 0 0 0 0 0 0 0 0 0 0 0 0 0 0 0 0 127 0" result="hardAlpha"/>
<feOffset dx="4" dy="4"/>
<feGaussianBlur stdDeviation="10"/>
<feComposite in2="hardAlpha" operator="out"/>
<feColorMatrix type="matrix" values="0 0 0 0 0.0509804 0 0 0 0 0.152941 0 0 0 0 0.419608 0 0 0 0.06 0"/>
<feBlend mode="normal" in2="BackgroundImageFix" result="effect1_dropShadow_1_141"/>
<feBlend mode="normal" in="SourceGraphic" in2="effect1_dropShadow_1_141" result="shape"/>
</filter>
<filter id="filter10_d_1_141" x="187" y="225" width="178" height="85" filterUnits="userSpaceOnUse" color-interpolation-filters="sRGB">
<feFlood flood-opacity="0" result="BackgroundImageFix"/>
<feColorMatrix in="SourceAlpha" type="matrix" values="0 0 0 0 0 0 0 0 0 0 0 0 0 0 0 0 0 0 127 0" result="hardAlpha"/>
<feOffset dx="4" dy="4"/>
<feGaussianBlur stdDeviation="10"/>
<feComposite in2="hardAlpha" operator="out"/>
<feColorMatrix type="matrix" values="0 0 0 0 0.0509804 0 0 0 0 0.152941 0 0 0 0 0.419608 0 0 0 0.06 0"/>
<feBlend mode="normal" in2="BackgroundImageFix" result="effect1_dropShadow_1_141"/>
<feBlend mode="normal" in="SourceGraphic" in2="effect1_dropShadow_1_141" result="shape"/>
</filter>
<filter id="filter11_d_1_141" x="345" y="225" width="208" height="85" filterUnits="userSpaceOnUse" color-interpolation-filters="sRGB">
<feFlood flood-opacity="0" result="BackgroundImageFix"/>
<feColorMatrix in="SourceAlpha" type="matrix" values="0 0 0 0 0 0 0 0 0 0 0 0 0 0 0 0 0 0 127 0" result="hardAlpha"/>
<feOffset dx="4" dy="4"/>
<feGaussianBlur stdDeviation="10"/>
<feComposite in2="hardAlpha" operator="out"/>
<feColorMatrix type="matrix" values="0 0 0 0 0.0509804 0 0 0 0 0.152941 0 0 0 0 0.419608 0 0 0 0.06 0"/>
<feBlend mode="normal" in2="BackgroundImageFix" result="effect1_dropShadow_1_141"/>
<feBlend mode="normal" in="SourceGraphic" in2="effect1_dropShadow_1_141" result="shape"/>
</filter>
<filter id="filter12_d_1_141" x="0" y="300" width="190" height="85" filterUnits="userSpaceOnUse" color-interpolation-filters="sRGB">
<feFlood flood-opacity="0" result="BackgroundImageFix"/>
<feColorMatrix in="SourceAlpha" type="matrix" values="0 0 0 0 0 0 0 0 0 0 0 0 0 0 0 0 0 0 127 0" result="hardAlpha"/>
<feOffset dx="4" dy="4"/>
<feGaussianBlur stdDeviation="10"/>
<feComposite in2="hardAlpha" operator="out"/>
<feColorMatrix type="matrix" values="0 0 0 0 0.0509804 0 0 0 0 0.152941 0 0 0 0 0.419608 0 0 0 0.06 0"/>
<feBlend mode="normal" in2="BackgroundImageFix" result="effect1_dropShadow_1_141"/>
<feBlend mode="normal" in="SourceGraphic" in2="effect1_dropShadow_1_141" result="shape"/>
</filter>
<filter id="filter13_d_1_141" x="170" y="300" width="229" height="85" filterUnits="userSpaceOnUse" color-interpolation-filters="sRGB">
<feFlood flood-opacity="0" result="BackgroundImageFix"/>
<feColorMatrix in="SourceAlpha" type="matrix" values="0 0 0 0 0 0 0 0 0 0 0 0 0 0 0 0 0 0 127 0" result="hardAlpha"/>
<feOffset dx="4" dy="4"/>
<feGaussianBlur stdDeviation="10"/>
<feComposite in2="hardAlpha" operator="out"/>
<feColorMatrix type="matrix" values="0 0 0 0 0.0509804 0 0 0 0 0.152941 0 0 0 0 0.419608 0 0 0 0.06 0"/>
<feBlend mode="normal" in2="BackgroundImageFix" result="effect1_dropShadow_1_141"/>
<feBlend mode="normal" in="SourceGraphic" in2="effect1_dropShadow_1_141" result="shape"/>
</filter>
<filter id="filter14_d_1_141" x="385" y="310" width="163" height="65" filterUnits="userSpaceOnUse" color-interpolation-filters="sRGB">
<feFlood flood-opacity="0" result="BackgroundImageFix"/>
<feColorMatrix in="SourceAlpha" type="matrix" values="0 0 0 0 0 0 0 0 0 0 0 0 0 0 0 0 0 0 127 0" result="hardAlpha"/>
<feOffset dy="4"/>
<feGaussianBlur stdDeviation="5"/>
<feComposite in2="hardAlpha" operator="out"/>
<feColorMatrix type="matrix" values="0 0 0 0 0.905882 0 0 0 0 0.360784 0 0 0 0 0.384314 0 0 0 0.1 0"/>
<feBlend mode="normal" in2="BackgroundImageFix" result="effect1_dropShadow_1_141"/>
<feBlend mode="normal" in="SourceGraphic" in2="effect1_dropShadow_1_141" result="shape"/>
</filter>
<clipPath id="clip0_1_141">
<rect width="24" height="24" fill="white" transform="translate(46 251)"/>
</clipPath>
<clipPath id="clip1_1_141">
<rect width="24" height="24" fill="white" transform="translate(46 326)"/>
</clipPath>
</defs>
</svg>
