<svg width="59" height="69" viewBox="0 0 59 69" fill="none" xmlns="http://www.w3.org/2000/svg">
<path d="M58.1884 14.028C57.9675 13.8506 57.7026 13.7366 57.4219 13.6982C57.1412 13.6598 56.8554 13.6985 56.595 13.8101L31.2375 24.7905C30.135 25.2709 28.7542 25.4992 27.3367 25.4992C25.3601 25.5071 23.3153 25.0477 21.8899 24.423C21.4555 24.24 21.0419 24.0112 20.6561 23.7405C20.7611 23.688 20.8924 23.6302 21.0367 23.5725L44.1 13.587L47.5387 15.057V10.7598C47.5439 10.4534 47.4798 10.1498 47.3512 9.87158C47.2225 9.5934 47.0327 9.34787 46.7959 9.15335C46.5759 8.97614 46.3119 8.86223 46.0321 8.82384C45.7523 8.78545 45.4673 8.82405 45.2077 8.93548L19.8502 19.9158C19.068 20.2309 18.396 20.6193 17.829 21.1837C17.1724 21.8315 16.7995 22.7132 16.7921 23.6355C16.7921 23.6617 16.8 23.7064 16.8 23.7064V62.3726L16.7947 62.4251C16.7947 62.4356 16.8026 62.4408 16.8026 62.4514V62.4933H16.8079C16.8604 63.8452 17.5429 64.7062 18.1939 65.3152C20.2414 67.1212 23.6801 68.1319 27.3394 68.1843C29.0719 68.1843 30.8306 67.9218 32.4581 67.2236L57.8235 56.2406C58.4929 55.9518 58.9312 55.2352 58.9312 54.4241V15.6345C58.9353 15.3282 58.8707 15.0249 58.7421 14.7469C58.6135 14.4689 58.4243 14.2233 58.1884 14.028ZM42.105 6.67798C42.0604 6.10048 41.8215 5.54922 41.3962 5.21847C41.1754 5.04107 40.9104 4.92708 40.6298 4.8887C40.3491 4.85032 40.0633 4.889 39.8029 5.0006L14.4454 15.9757C13.3429 16.4535 11.9595 16.6845 10.5446 16.6845C8.568 16.6897 6.52312 16.2304 5.09775 15.603C4.66294 15.4231 4.24921 15.196 3.864 14.9257C3.969 14.8732 4.10025 14.8155 4.24463 14.7577L27.3105 4.77222L30.7492 6.24223V1.95035C30.7539 1.64373 30.6893 1.34001 30.5602 1.06184C30.4311 0.783674 30.2409 0.538242 30.0037 0.34385C29.7833 0.166676 29.5188 0.0528024 29.2386 0.014423C28.9584 -0.0239563 28.673 0.0146045 28.413 0.125976L3.0555 11.109C2.27325 11.424 1.60387 11.8099 1.03425 12.3769C0.378634 13.025 0.00671556 13.9067 0 14.8286C0 14.8601 0.00787443 14.9021 0.00787443 14.9021V53.6917H0.0131253C0.0656253 55.0436 0.748125 55.9046 1.39912 56.5136C3.44662 58.3196 6.88537 59.3276 10.5472 59.3801C11.5417 59.3742 12.533 59.2669 13.5056 59.0599V23.7037C13.4794 21.8662 14.2144 20.1022 15.5059 18.8317C16.4006 17.9638 17.4637 17.2884 18.6296 16.8472L42.105 6.67798Z" fill="#E75C62"/>
</svg>
