<svg width="70" height="83" viewBox="0 0 70 83" fill="none" xmlns="http://www.w3.org/2000/svg">
<path d="M63.7881 19.427C63.5672 19.2496 63.3023 19.1356 63.0216 19.0972C62.7409 19.0589 62.4551 19.0975 62.1947 19.2091L36.8372 30.1895C35.7347 30.6699 34.354 30.8983 32.9365 30.8983C30.9599 30.9061 28.915 30.4468 27.4896 29.822C27.0552 29.6391 26.6416 29.4103 26.2559 29.1395C26.3609 29.087 26.4921 29.0293 26.6365 28.9715L49.6997 18.986L53.1385 20.456V16.1589C53.1437 15.8525 53.0795 15.5488 52.9509 15.2706C52.8223 14.9924 52.6324 14.7469 52.3956 14.5524C52.1757 14.3752 51.9116 14.2613 51.6318 14.2229C51.352 14.1845 51.067 14.2231 50.8075 14.3345L25.45 25.3149C24.6677 25.6299 23.9957 26.0184 23.4287 26.5828C22.7722 27.2305 22.3993 28.1122 22.3919 29.0345C22.3919 29.0608 22.3997 29.1054 22.3997 29.1054V67.7716L22.3945 67.8241C22.3945 67.8346 22.4024 67.8399 22.4024 67.8504V67.8924H22.4076C22.4601 69.2443 23.1426 70.1053 23.7936 70.7143C25.8411 72.5203 29.2799 73.5309 32.9391 73.5834C34.6716 73.5834 36.4304 73.3209 38.0579 72.6226L63.4232 61.6396C64.0926 61.3509 64.531 60.6343 64.531 59.8231V21.0335C64.535 20.7273 64.4704 20.424 64.3418 20.146C64.2133 19.868 64.0241 19.6223 63.7881 19.427V19.427ZM47.7047 12.077C47.6601 11.4995 47.4212 10.9483 46.996 10.6175C46.7751 10.4401 46.5102 10.3261 46.2295 10.2877C45.9488 10.2494 45.663 10.2881 45.4026 10.3996L20.0451 21.3748C18.9426 21.8525 17.5592 22.0835 16.1444 22.0835C14.1677 22.0888 12.1229 21.6294 10.6975 21.002C10.2627 20.8221 9.84894 20.595 9.46373 20.3248C9.56873 20.2723 9.69998 20.2145 9.84436 20.1568L32.9102 10.1713L36.349 11.6413V7.3494C36.3537 7.04278 36.289 6.73905 36.16 6.46089C36.0309 6.18272 35.8407 5.93729 35.6035 5.7429C35.383 5.56572 35.1185 5.45185 34.8383 5.41347C34.5581 5.37509 34.2727 5.41365 34.0127 5.52502L8.65523 16.508C7.87298 16.823 7.20361 17.2089 6.63398 17.7759C5.97837 18.4241 5.60645 19.3057 5.59973 20.2276C5.59973 20.2591 5.60761 20.3011 5.60761 20.3011V59.0908H5.61286C5.66536 60.4426 6.34786 61.3036 6.99886 61.9126C9.04636 63.7186 12.4851 64.7266 16.147 64.7791C17.1414 64.7733 18.1327 64.666 19.1054 64.4589V29.1028C19.0791 27.2653 19.8141 25.5013 21.1056 24.2308C22.0004 23.3628 23.0635 22.6875 24.2294 22.2463L47.7047 12.077V12.077Z" fill="white"/>
</svg>
