<svg width="24" height="24" viewBox="0 0 24 24" fill="none" xmlns="http://www.w3.org/2000/svg">
<path d="M12 2.25C6.624 2.25 2.25 6.624 2.25 12C2.25 17.376 6.624 21.75 12 21.75C17.376 21.75 21.75 17.376 21.75 12C21.75 6.624 17.376 2.25 12 2.25ZM11.1562 3.79725C11.1862 3.7935 11.2192 3.7995 11.25 3.79725V4.5H12.75V3.7965C14.669 3.96818 16.4667 4.80859 17.829 6.17095C19.1914 7.53331 20.0318 9.331 20.2035 11.25H19.5V12.75H20.2035C20.0318 14.669 19.1914 16.4667 17.829 17.829C16.4667 19.1914 14.669 20.0318 12.75 20.2035V19.5H11.25V20.2035C9.331 20.0318 7.53331 19.1914 6.17095 17.829C4.80859 16.4667 3.96818 14.669 3.7965 12.75H4.5V11.25H3.7965C4.1505 7.31775 7.23675 4.1925 11.1562 3.7965V3.79725ZM16.5712 7.4295L10.1963 10.1955L7.42875 16.5705L13.8038 13.8045L16.5712 7.4295V7.4295ZM12 10.875C12.6 10.875 13.125 11.4 13.125 12C13.125 12.6 12.6 13.125 12 13.125C11.4 13.125 10.875 12.6 10.875 12C10.875 11.4 11.4 10.875 12 10.875Z" fill="#1C1C1C"/>
</svg>
