<svg width="24" height="24" viewBox="0 0 24 24" fill="none" xmlns="http://www.w3.org/2000/svg">
<g clip-path="url(#clip0_210_81)">
<path fill-rule="evenodd" clip-rule="evenodd" d="M12 3.62996L10.9245 2.52446C9.22954 0.78296 6.06004 1.35896 4.90954 3.60446C4.38454 4.63196 4.23304 6.16496 5.26354 8.19746C6.24004 10.1295 8.28004 12.48 12 15.063C15.7185 12.4785 17.7585 10.128 18.7365 8.19746C19.767 6.16496 19.617 4.63196 19.0905 3.60596C17.94 1.35896 14.7705 0.78296 13.0755 2.52446L12 3.62996ZM11.265 16.38C-4.90496 5.21996 6.76504 -3.35254 11.8035 1.28546C11.871 1.34696 11.937 1.41146 12.0015 1.47896C12.066 1.41146 12.132 1.34696 12.1995 1.28546C17.2395 -3.35254 28.905 5.22146 12.735 16.38L13.0875 17.082C13.1096 17.1261 13.1228 17.1741 13.1263 17.2233C13.1298 17.2725 13.1235 17.322 13.1079 17.3688C13.0923 17.4156 13.0677 17.4588 13.0353 17.4961C13.003 17.5334 12.9637 17.5639 12.9195 17.586C12.8754 17.608 12.8274 17.6212 12.7782 17.6247C12.729 17.6282 12.6795 17.6219 12.6327 17.6063C12.5859 17.5907 12.5427 17.5661 12.5054 17.5338C12.4681 17.5014 12.4376 17.4621 12.4155 17.418L12.4035 17.3925C12.4155 17.5575 12.4335 17.6955 12.459 17.8275C12.54 18.2325 12.7005 18.5595 13.0875 19.332C13.5195 20.199 13.44 21.057 13.2015 21.7755C12.966 22.479 12.5685 23.076 12.3195 23.448L12.3135 23.4585C12.2862 23.4994 12.251 23.5346 12.21 23.562C12.169 23.5894 12.1231 23.6084 12.0747 23.618C12.0264 23.6276 11.9766 23.6276 11.9283 23.618C11.88 23.6084 11.834 23.5893 11.793 23.562C11.7521 23.5346 11.7169 23.4994 11.6895 23.4584C11.6621 23.4174 11.6431 23.3715 11.6335 23.3231C11.6239 23.2748 11.6239 23.2251 11.6335 23.1767C11.6431 23.1284 11.6622 23.0824 11.6895 23.0415C11.9415 22.6635 12.2895 22.1415 12.489 21.537C12.6885 20.943 12.7335 20.301 12.4155 19.668L12.396 19.626C12.036 18.906 11.826 18.489 11.724 17.973C11.682 17.7501 11.6559 17.5245 11.646 17.298L11.586 17.418C11.5642 17.4624 11.5338 17.502 11.4966 17.5346C11.4593 17.5673 11.416 17.5922 11.3691 17.608C11.3222 17.6237 11.2727 17.6301 11.2233 17.6266C11.1739 17.6232 11.1257 17.61 11.0815 17.5878C11.0372 17.5656 10.9978 17.5349 10.9655 17.4975C10.9332 17.46 10.9086 17.4165 10.8932 17.3694C10.8777 17.3224 10.8718 17.2728 10.8756 17.2235C10.8795 17.1741 10.893 17.126 10.9155 17.082L11.268 16.38H11.265ZM9.01954 3.08996C8.04604 2.81996 6.79504 3.21446 6.24454 4.28696C6.04804 4.67396 5.87704 5.32046 6.12454 6.28946C6.21904 6.65546 6.74554 6.58646 6.85504 6.22496C7.17004 5.17946 7.79554 4.05446 8.89354 3.68696C9.21904 3.57746 9.34954 3.18146 9.01954 3.08996V3.08996Z" fill="#1C1C1C"/>
</g>
<defs>
<clipPath id="clip0_210_81">
<rect width="24" height="24" fill="white"/>
</clipPath>
</defs>
</svg>
