<svg width="18" height="18" viewBox="0 0 18 18" fill="none" xmlns="http://www.w3.org/2000/svg">
<path d="M6.37396 3.408C5.50396 3.4415 4.71746 3.752 4.29696 4.173C4.25051 4.21943 4.19536 4.25624 4.13468 4.28135C4.07399 4.30647 4.00896 4.31938 3.94328 4.31936C3.87761 4.31933 3.81258 4.30637 3.75192 4.28122C3.69125 4.25607 3.63613 4.21921 3.58971 4.17275C3.54329 4.1263 3.50647 4.07115 3.48136 4.01047C3.45625 3.94979 3.44334 3.88475 3.44336 3.81908C3.44338 3.7534 3.45634 3.68838 3.48149 3.62771C3.50665 3.56704 3.54351 3.51193 3.58996 3.4655C4.23846 2.817 5.29446 2.449 6.33496 2.4085C7.38246 2.368 8.52596 2.6545 9.32696 3.4555C9.42071 3.54932 9.47336 3.67655 9.47331 3.80918C9.47326 3.94182 9.42053 4.069 9.32671 4.16275C9.23289 4.25651 9.10567 4.30915 8.97303 4.3091C8.8404 4.30906 8.71321 4.25632 8.61946 4.1625C8.07446 3.617 7.23746 3.374 6.37396 3.4075V3.408Z" fill="#1C1C1C"/>
<path fill-rule="evenodd" clip-rule="evenodd" d="M11.468 10.692C12.4594 9.52043 13.0024 8.03475 13 6.5C13 2.91 10.09 0 6.5 0C2.91 0 0 2.91 0 6.5C0 10.09 2.91 13 6.5 13C8.0975 13 9.56 12.424 10.692 11.468L10.5 12.572L14.257 16.329L16.329 14.257L12.572 10.5L11.468 10.692ZM6.5 11.5C9.2615 11.5 11.5 9.2615 11.5 6.5C11.5 3.7385 9.2615 1.5 6.5 1.5C3.7385 1.5 1.5 3.7385 1.5 6.5C1.5 9.2615 3.7385 11.5 6.5 11.5Z" fill="#1C1C1C"/>
<path d="M14.964 17.036L17.036 14.964L17.714 15.642C18.0955 16.0235 18.0955 16.642 17.714 17.023L17.023 17.714C16.6415 18.0955 16.023 18.0955 15.642 17.714L14.964 17.036Z" fill="#1C1C1C"/>
</svg>
