<svg width="24" height="24" viewBox="0 0 24 24" fill="none" xmlns="http://www.w3.org/2000/svg">
<path d="M6 16.4238C6 16.695 5.89844 16.9407 5.69531 17.1611C5.49219 17.3814 5.26563 17.4916 5.01562 17.4916C4.73438 17.4916 4.49219 17.3814 4.28906 17.1611C4.08594 16.9407 3.98438 16.695 3.98438 16.4238C3.98438 16.1187 4.08594 15.856 4.28906 15.6356C4.49219 15.4153 4.73438 15.3051 5.01562 15.3051C5.26563 15.3051 5.49219 15.4153 5.69531 15.6356C5.89844 15.856 6 16.1187 6 16.4238ZM21.9844 1.22038H9V1.32208C7.6875 1.69496 6.6875 2.38988 6 3.40682C5.75 3.40682 5.53906 3.22886 5.36719 2.87293C5.19531 2.51699 5.09375 2.15259 5.0625 1.77971L5.01562 1.22038H3C3 2.03394 3.17187 2.86445 3.51562 3.71191C3.85938 4.55937 4.39063 5.13564 5.10938 5.44072C5.10938 5.50852 5.09375 5.61021 5.0625 5.74581C5.03125 5.8814 5.01562 5.96615 5.01562 6.00004C3.57813 6.71191 2.57812 7.89835 2.01562 9.55937C1.60937 10.7797 1.23438 12.1272 0.890625 13.6017C0.546875 15.0763 0.3125 16.2204 0.1875 17.0339C0.0625 17.8475 0 18.3221 0 18.4577C0 19.4746 0.203125 20.2373 0.609375 20.7458C1.07812 21.4577 1.875 21.8136 3 21.8136H6C6.90625 21.8136 7.63281 21.517 8.17969 20.9238C8.72656 20.3306 9 19.5424 9 18.5594C9 17.7458 9.0625 16.6611 9.1875 15.3051H11.0156C11.9219 15.3051 12.7344 15 13.4531 14.3899C14.1719 13.7797 14.6562 13 14.9062 12.0509H15.9844C17.5781 12.0509 18.7187 11.339 19.4062 9.9153H21.5156C21.8281 9.9153 21.9844 9.72886 21.9844 9.35598C21.9844 8.9831 21.8281 8.79665 21.5156 8.79665H19.9219C19.9219 8.69496 19.9375 8.51699 19.9688 8.26276C20 8.00852 20.0156 7.83055 20.0156 7.72886H24V0.152588H23.0156C22.3281 0.152588 21.9844 0.50852 21.9844 1.22038ZM9 3.61021V9.66106C8.40625 9.45767 7.92188 9.07632 7.54688 8.51699C7.17188 7.95767 6.98438 7.33903 6.98438 6.66106C6.98438 5.9492 7.17188 5.3136 7.54688 4.75428C7.92188 4.19496 8.40625 3.8136 9 3.61021ZM6 19.678H3C2.53125 19.678 2.23438 19.5933 2.10938 19.4238C2.04687 19.2882 2.01562 19.0339 2.01562 18.6611C2.39062 15.6441 3.01563 12.8306 3.89062 10.2204C4.20312 9.37293 4.64062 8.72886 5.20312 8.28818C5.57812 9.67801 6.40625 10.7289 7.6875 11.4407C7.21875 14.6272 6.98438 17 6.98438 18.5594C6.98438 19.3051 6.65625 19.678 6 19.678ZM11.0156 13.1695H9.51562C9.64063 12.5594 9.70312 12.1865 9.70312 12.0509H12.7031C12.3906 12.7967 11.8281 13.1695 11.0156 13.1695ZM15.9844 9.9153H11.0156V3.40682H18V4.47462H13.5C13.1562 4.47462 12.9844 4.66106 12.9844 5.03394C12.9844 5.37293 13.1562 5.54242 13.5 5.54242H18V6.66106H13.5C13.1562 6.66106 12.9844 6.83055 12.9844 7.16954C12.9844 7.54242 13.1562 7.72886 13.5 7.72886H18C18 8.30513 17.8047 8.8136 17.4141 9.25428C17.0234 9.69496 16.5469 9.9153 15.9844 9.9153ZM21.9844 5.54242H20.0156V3.40682H21.9844V5.54242Z" fill="#1C1C1C"/>
</svg>
