<svg width="24" height="24" viewBox="0 0 24 24" fill="none" xmlns="http://www.w3.org/2000/svg">
<g clip-path="url(#clip0_1_172)">
<path d="M19.8 21H13.2V7.18359C13.9658 6.76453 14.5538 5.95453 14.8268 4.95844L19.7768 2.88375C20.091 2.75203 20.2601 2.32687 20.1548 1.93406L19.7734 0.511875C19.668 0.119062 19.3279 -0.0923437 19.0136 0.039375L14.5916 1.89234C14.0737 0.766875 13.1134 0 12 0C10.3433 0 9 1.67906 9 3.75C9 3.91078 9.02213 4.06453 9.03788 4.22016L4.22325 6.23812C3.909 6.36984 3.73988 6.795 3.84525 7.18781L4.22662 8.61C4.332 9.00281 4.67213 9.21422 4.98638 9.0825L10.3132 6.84984C10.4659 6.97969 10.6294 7.08984 10.8004 7.18359V23.25C10.8004 23.6644 11.0689 24 11.4004 24H19.8004C20.1319 24 20.4004 23.6644 20.4004 23.25V21.75C20.4 21.3356 20.1315 21 19.8 21ZM23.9993 14.25C23.9993 13.4916 24.0495 13.8408 20.8099 5.74172C20.148 4.0875 18.2528 4.08422 17.5898 5.74172C14.3228 13.9102 14.4008 13.5155 14.4008 14.25H14.4C14.4 16.3209 16.5491 18 19.2 18C21.8509 18 24 16.3209 24 14.25H23.9993ZM16.5 13.5L19.2 6.75L21.9 13.5H16.5ZM6.40987 11.7417C5.748 10.0875 3.85275 10.0842 3.18975 11.7417C-0.0772502 19.9102 0.00075 19.5155 0.00075 20.25H0C0 22.3209 2.14913 24 4.8 24C7.45088 24 9.6 22.3209 9.6 20.25H9.59925C9.59925 19.4916 9.6495 19.8408 6.40987 11.7417ZM2.1 19.5L4.8 12.75L7.5 19.5H2.1Z" fill="#1C1C1C"/>
</g>
<defs>
<clipPath id="clip0_1_172">
<rect width="24" height="24" fill="white"/>
</clipPath>
</defs>
</svg>
