<svg width="24" height="24" viewBox="0 0 24 24" fill="none" xmlns="http://www.w3.org/2000/svg">
<path d="M13 10L18.949 19.516C18.9787 19.5639 18.9951 19.6189 18.9965 19.6752C18.9979 19.7316 18.9842 19.7873 18.9569 19.8366C18.9296 19.8859 18.8896 19.927 18.8412 19.9557C18.7927 19.9845 18.7374 19.9997 18.681 20H5.31903C5.26237 19.9997 5.20683 19.9843 5.15818 19.9552C5.10952 19.9262 5.06954 19.8847 5.04238 19.835C5.01522 19.7852 5.00189 19.7292 5.00376 19.6725C5.00563 19.6159 5.02264 19.5608 5.05303 19.513L11 10V3H13V10ZM7.00003 1V3H9.00003V9.46L3.35903 18.45C3.13908 18.8005 3.01699 19.2036 3.00542 19.6172C2.99386 20.0309 3.09324 20.4401 3.29326 20.8024C3.49328 21.1647 3.78663 21.4668 4.14286 21.6774C4.49909 21.888 4.9052 21.9994 5.31903 22H18.681C19.0949 21.9994 19.501 21.888 19.8572 21.6774C20.2134 21.4668 20.5068 21.1647 20.7068 20.8024C20.9068 20.4401 21.0062 20.0309 20.9946 19.6172C20.9831 19.2036 20.861 18.8005 20.641 18.45L15.001 9.46L15 3H17V1H7.00003Z" fill="#1C1C1C"/>
</svg>
