<svg width="24" height="24" viewBox="0 0 24 24" fill="none" xmlns="http://www.w3.org/2000/svg">
<g clip-path="url(#clip0_210_94)">
<path d="M13.9799 23.4795C13.8406 23.2992 13.7547 23.0834 13.7319 22.8567C13.7091 22.63 13.7503 22.4014 13.8509 22.197C14.1149 21.684 14.2184 21.0975 14.1509 20.52C14.0956 20.1079 13.9595 19.7108 13.7504 19.3515C13.544 18.9968 13.268 18.6876 12.9389 18.4425C11.8174 17.5996 11.0305 16.387 10.7174 15.0195C8.15541 18.378 9.13791 20.2845 10.3649 21.9645C10.5088 22.1614 10.5846 22.3999 10.5808 22.6437C10.577 22.8876 10.4938 23.1236 10.3439 23.316C10.1911 23.5106 9.98617 23.6579 9.75291 23.7405C9.52234 23.8214 9.27318 23.8334 9.03591 23.775C7.37841 23.37 5.81841 22.599 4.76091 21.3705C4.16146 20.6881 3.69995 19.896 3.40191 19.038C3.10047 18.1727 2.96659 17.2579 3.00741 16.3425C3.00741 16.3425 2.80791 12.648 7.26291 9.02847C7.26291 9.02847 12.5279 4.56147 10.7009 1.25847C10.6336 1.09599 10.6136 0.917778 10.6434 0.74444C10.6731 0.571102 10.7513 0.409722 10.8689 0.278966C10.9832 0.150765 11.1342 0.06084 11.3014 0.0213937C11.4686 -0.0180525 11.6438 -0.00510957 11.8034 0.0584661L12.0224 0.145466C14.0055 1.39903 15.5555 3.23176 16.4624 5.39547C17.3324 7.51497 17.3264 9.98547 16.7384 12.186C17.2259 11.748 17.6324 11.2245 17.9399 10.6365L17.9834 10.5405C18.2804 9.82497 19.2149 10.053 19.5659 10.521C19.6949 10.7265 23.0039 15.5355 21.2264 19.593C20.5765 20.8223 19.6273 21.868 18.4664 22.6335C17.4923 23.2799 16.4039 23.7345 15.2594 23.973C15.0229 24.0228 14.7769 24.003 14.5514 23.916C14.3239 23.8275 14.1258 23.6767 13.9799 23.481V23.4795ZM11.3309 11.838C11.471 11.765 11.6332 11.747 11.7859 11.7875C11.9385 11.828 12.0705 11.9241 12.1559 12.057C12.2159 12.1455 12.2549 12.246 12.2684 12.354L12.3359 12.8775C12.3659 13.644 12.3569 14.445 12.6554 15.1815C12.9644 15.9375 13.4444 16.6065 14.0534 17.1285C14.838 17.6447 15.4453 18.3892 15.7934 19.2615C16.1234 20.1075 16.1684 21.0465 15.9194 21.921C16.6812 21.6807 17.3893 21.2951 18.0044 20.7855L18.1589 20.6595C18.6629 20.244 19.0784 19.725 19.3784 19.134C19.6799 18.5445 19.8614 17.8965 19.9094 17.2305C20.0069 15.693 19.4834 14.1495 18.6689 12.7725C18.2969 13.3125 17.7839 13.731 17.1914 13.9785C16.8209 14.136 16.4279 14.2335 16.0274 14.2635C15.798 14.2782 15.5693 14.2261 15.3689 14.1135C15.1655 13.9979 14.9986 13.8274 14.8874 13.6215C14.7954 13.4554 14.7428 13.2705 14.7337 13.0808C14.7246 12.8912 14.7592 12.7021 14.8349 12.528C15.4529 11.07 15.6449 9.45297 15.3824 7.88247C15.0717 6.08567 14.2111 4.42954 12.9194 3.14247C12.6854 6.44997 9.29391 9.52947 8.59791 10.1925C8.49002 10.2941 8.37792 10.3912 8.26191 10.4835C4.62291 13.431 4.87191 16.116 4.87191 16.2345C4.79964 17.3011 5.03884 18.3658 5.56041 19.299C6.10791 20.2665 6.89541 21.0645 7.84041 21.609C6.74991 19.212 6.74991 16.335 10.7744 12.21L11.3324 11.835L11.3309 11.838Z" fill="#1C1C1C"/>
</g>
<defs>
<clipPath id="clip0_210_94">
<rect width="24" height="24" fill="white"/>
</clipPath>
</defs>
</svg>
